/* XPM */
static char *_841a8971e1f49099953cf32bab6e57cYc3XFWSviFpaM7vB[] = {
/* columns rows colors chars-per-pixel */
"64 64 6 1 ",
"  c None",
". c #5D2C28",
"X c #37474F",
"o c #8A4836",
"O c #BF6F4A",
"+ c #E69C69",
/* pixels */
"                                                                ",
"                                                                ",
"                                                                ",
"                                                                ",
"                                                                ",
"                                                                ",
"                                                                ",
"                                                                ",
"                                                                ",
"                                                                ",
"                                                                ",
"                                                                ",
"                                                                ",
"                                                                ",
"                                                                ",
"                       XXXXXXXXXXXXXXXXX                        ",
"                       XoooooooooooooooX                        ",
"                       XoooooooooooooooX                        ",
"                       XoooooooooooooooX                        ",
"                       XoooooooooooooooX                        ",
"                       Xooo.........+ooX                        ",
"                       Xooo.OO.OO.OO+ooX                        ",
"                       Xooo.OO.OO.OO+o+X                        ",
"                       Xooo.OO.OO.OO+o.X                        ",
"                       Xooo.OO.OO.OO+o.X                        ",
"                       Xooo.OO.OO.OO+o.X                        ",
"                       Xooo.OO.OO.OO+o.X                        ",
"                       Xooo.OO.OO.OO+ooX                        ",
"                       Xooo.OO.OO.OO+ooX                        ",
"                       Xooo.+++++++++ooX                        ",
"                       XoooooooooooooooX                        ",
"                       XoooooooooooooooX                        ",
"                       XoooooooooooooooX                        ",
"                       XoooooooooooooooX                        ",
"                       XoooooooooooooooX                        ",
"                       Xooo.........+ooX                        ",
"                       Xooo.OO.OO.OO+ooX                        ",
"                       Xooo.OO.OO.OO+o+X                        ",
"                       Xooo.OO.OO.OO+o.X                        ",
"                       Xooo.OO.OO.OO+o.X                        ",
"                       Xooo.OO.OO.OO+o.X                        ",
"                       Xooo.OO.OO.OO+o.X                        ",
"                       Xooo.OO.OO.OO+ooX                        ",
"                       Xooo.OO.OO.OO+ooX                        ",
"                       Xooo.+++++++++ooX                        ",
"                       XoooooooooooooooX                        ",
"                       XoooooooooooooooX                        ",
"                       XoooooooooooooooX                        ",
"                       XXXXXXXXXXXXXXXXX                        ",
"                                                                ",
"                                                                ",
"                                                                ",
"                                                                ",
"                                                                ",
"                                                                ",
"                                                                ",
"                                                                ",
"                                                                ",
"                                                                ",
"                                                                ",
"                                                                ",
"                                                                ",
"                                                                ",
"                                                                "
};
