/* XPM */
static char *_99cfc431a24463faf67ba738cc8b7e6jx3byalmuTJNVPB9[] = {
/* columns rows colors chars-per-pixel */
"64 64 7 1 ",
"  c None",
". c black",
"X c #5D2C28",
"o c #37474F",
"O c #8A4836",
"+ c #BF6F4A",
"@ c #E69C69",
/* pixels */
"                                                                ",
"                                                                ",
"                                                                ",
"                                                                ",
"                                                                ",
"                                                                ",
"                                                                ",
"                                                                ",
"                                                                ",
"                                                                ",
"                                                                ",
"                                                                ",
"                                                                ",
"                              XOOO                              ",
"                              XOOOOOO                           ",
"                       oooooooXOOOOOOOOo                        ",
"                       oooooooXOOOOOOOOo                        ",
"                       oo.....XOOXXOOOOo                        ",
"                       oo.....XOOX+XXOOo                        ",
"                       oo.....XOOX+X+@Oo                        ",
"                       oo.....XOOX+X+@Oo                        ",
"                       oo.....XOOX+X+@@o                        ",
"                       oo.....XOOX+X+@Xo                        ",
"                       oo.....XOOX+X+@Xo                        ",
"                       oo.....XOOX+X+@Xo                        ",
"                       oo.....XOOX+X+@Oo                        ",
"                       oo.....XOOX+X+@Oo                        ",
"                       oo.....XOOX+X+@Oo                        ",
"                       oo.....XOOO@@+@Oo                        ",
"                       oo.....XOOOOO@@Oo                        ",
"                       oo.....XOOOOOOOOo                        ",
"                       oo.....XOOOOOOOOo                        ",
"                       oo.....XOOOOOOOOo                        ",
"                       oo.....XOOOOOOOOo                        ",
"                       oo.....XOOOOOX@Oo                        ",
"                       oo.....XOOOXX+@Oo                        ",
"                       oo.....XOOX+X+@Oo                        ",
"                       oo.....XOOX+X+@Oo                        ",
"                       oo.....XOOX+X+@Oo                        ",
"                       oo.....XOOX+X+@@o                        ",
"                       oo.....XOOX+X+@Xo                        ",
"                       oo.....XOOX+X+@Xo                        ",
"                       oo.....XOOX+X+@Xo                        ",
"                       oo.....XOOX+X+@Oo                        ",
"                       oo.....XOOX+X+@Oo                        ",
"                       oo.....XOOX+@@OOo                        ",
"                       oo.....XOOX@OOOOo                        ",
"                       oooooooXOOOOOOOOo                        ",
"                       oooooooXOOOOOOOOo                        ",
"                              XOOOOOO                           ",
"                              XOOO                              ",
"                                                                ",
"                                                                ",
"                                                                ",
"                                                                ",
"                                                                ",
"                                                                ",
"                                                                ",
"                                                                ",
"                                                                ",
"                                                                ",
"                                                                ",
"                                                                ",
"                                                                "
};
