/* XPM */
static char *imresizer_17239790469471723979213[] = {
/* columns rows colors chars-per-pixel */
"64 64 154 2 ",
"   c black",
".  c #010101",
"X  c #020202",
"o  c gray1",
"O  c #040404",
"+  c gray2",
"@  c #060606",
"#  c #070707",
"$  c gray3",
"%  c #090909",
"&  c gray4",
"*  c #0B0B0B",
"=  c #0C0C0C",
"-  c gray5",
";  c #0E0E0E",
":  c gray6",
">  c #101010",
",  c #111111",
"<  c gray7",
"1  c #131313",
"2  c gray8",
"3  c #151515",
"4  c #191919",
"5  c #1B1B1B",
"6  c gray11",
"7  c #1D1D1D",
"8  c #1E1E1E",
"9  c gray12",
"0  c gray13",
"q  c #222222",
"w  c #282828",
"e  c gray16",
"r  c #2C2C2C",
"t  c #2D2D2D",
"y  c #2F2F2F",
"u  c #323232",
"i  c #343434",
"p  c #353535",
"a  c gray21",
"s  c #373737",
"d  c gray22",
"f  c #393939",
"g  c #3A3A3A",
"h  c gray23",
"j  c #3C3C3C",
"k  c gray24",
"l  c #3E3E3E",
"z  c #3F3F3F",
"x  c gray25",
"c  c gray26",
"v  c #434343",
"b  c #444444",
"n  c gray27",
"m  c #464646",
"M  c gray28",
"N  c #484848",
"B  c #4B4B4B",
"V  c #4C4C4C",
"C  c #4E4E4E",
"Z  c #505050",
"A  c gray33",
"S  c #565656",
"D  c gray36",
"F  c gray37",
"G  c #606060",
"H  c #626262",
"J  c gray40",
"K  c DimGray",
"L  c #6A6A6A",
"P  c gray42",
"I  c #6C6C6C",
"U  c #6D6D6D",
"Y  c gray43",
"T  c #6F6F6F",
"R  c gray44",
"E  c #717171",
"W  c #727272",
"Q  c gray45",
"!  c #747474",
"~  c gray46",
"^  c #767676",
"/  c #777777",
"(  c #818181",
")  c gray51",
"_  c #838383",
"`  c gray53",
"'  c #898989",
"]  c gray56",
"[  c #939393",
"{  c #959595",
"}  c gray59",
"|  c #9A9A9A",
" . c #9D9D9D",
".. c gray62",
"X. c #9F9F9F",
"o. c #A0A0A0",
"O. c gray63",
"+. c gray64",
"@. c #A4A4A4",
"#. c #A5A5A5",
"$. c gray65",
"%. c #A7A7A7",
"&. c gray66",
"*. c gray67",
"=. c #AFAFAF",
"-. c #B1B1B1",
";. c gray70",
":. c #B6B6B6",
">. c #B7B7B7",
",. c gray72",
"<. c #B9B9B9",
"1. c gray74",
"2. c gray",
"3. c #C6C6C6",
"4. c #CECECE",
"5. c #D2D2D2",
"6. c gray83",
"7. c #D5D5D5",
"8. c gray84",
"9. c #D7D7D7",
"0. c gray85",
"q. c gray86",
"w. c #DDDDDD",
"e. c gray87",
"r. c #DFDFDF",
"t. c #E1E1E1",
"y. c #E2E2E2",
"u. c #E4E4E4",
"i. c gray90",
"p. c #E7E7E7",
"a. c gray91",
"s. c #E9E9E9",
"d. c #EAEAEA",
"f. c gray92",
"g. c #ECECEC",
"h. c gray93",
"j. c #EEEEEE",
"k. c #EFEFEF",
"l. c gray94",
"z. c #F1F1F1",
"x. c gray95",
"c. c #F3F3F3",
"v. c #F4F4F4",
"b. c gray96",
"n. c #F6F6F6",
"m. c gray97",
"M. c #F8F8F8",
"N. c #F9F9F9",
"B. c gray98",
"V. c #FBFBFB",
"C. c gray99",
"Z. c #FDFDFD",
"A. c #FEFEFE",
"S. c None",
/* pixels */
"S.S.S.S.S.S.S.S.S.S.S.S.S.S.S.S.S.S.S.S.S.S.S.S.S.S.S.S.S.S.S.S.S.S.S.S.S.S.S.S.S.S.S.S.S.S.S.S.S.S.S.S.S.S.S.S.S.S.S.S.S.S.S.S.",
"S.S.S.S.S.S.S.S.S.S.S.S.S.S.S.S.S.S.S.S.S.S.S.S.S.S.S.S.S.S.S.S.S.S.S.S.S.S.S.S.S.S.S.S.S.S.S.S.S.S.S.S.S.S.S.S.S.S.S.S.S.S.S.S.",
"S.S.S.S.S.S.S.S.S.S.S.S.S.S.S.S.S.S.S.S.S.S.S.S.S.S.S.S.S.S.S.S.S.S.S.S.S.S.S.S.S.S.S.S.S.S.S.S.S.S.S.S.S.S.S.S.S.S.S.S.S.S.S.S.",
"S.S.S.S.S.S.S.S.S.S.S.S.S.S.S.S.S.S.S.S.S.S.S.S.S.S.S.S.S.S.S.S.S.S.S.S.S.S.S.S.S.S.S.S.S.S.S.S.S.S.S.S.S.S.S.S.S.S.S.S.S.S.S.S.",
"S.S.S.S.S.S.S.S.S.S.S.S.S.S.S.S.S.S.S.S.S.S.S.S.S.S.S.S.S.S.S.S.S.S.S.S.S.S.S.S.S.S.S.S.S.S.S.S.S.S.S.S.S.S.S.S.S.S.S.S.S.S.S.S.",
"S.S.S.S.S.S.S.S.S.S.S.S.S.S.S.S.S.S.S.S.S.S.S.S.S.S.S.S.S.S.S.S.S.S.S.S.S.S.S.S.S.S.S.S.S.S.S.S.S.S.S.S.S.S.S.S.S.S.S.S.S.S.S.S.",
"S.S.S.S.S.S.S.S.S.S.S.S.S.S.S.S.S.S.S.S.S.S.S.S.S.S.S.S.S.S.S.S.S.S.S.S.S.S.S.S.S.S.S.S.S.S.S.S.S.S.S.S.S.S.S.S.S.S.S.S.S.S.S.S.",
"S.S.S.S.S.S.S.S.S.S.S.S.S.S.S.S.S.S.S.S.S.S.S.S.S.S.S.S.S.S.S.S.S.S.S.S.S.S.S.S.S.S.S.S.S.S.S.S.S.S.S.S.S.S.S.S.S.S.S.S.S.S.S.S.",
"S.S.S.S.S.S.S.S.S.S.S.S.S.S.S.S.S.S.S.S.S.S.S.S.S.S.S.S.S.S.S.S.S.S.S.S.S.S.S.S.S.S.S.S.S.S.S.S.S.S.S.S.S.S.S.S.S.S.S.S.S.S.S.S.",
"S.S.S.S.S.S.S.S.S.S.S.S.S.S.S.S.S.S.S.S.S.S.S.S.S.S.S.S.S.S.S.S.S.S.S.S.S.S.S.S.S.S.S.S.S.S.S.S.S.S.S.S.S.S.S.S.S.S.S.S.S.S.S.S.",
"S.S.S.S.S.S.S.S.S.S.S.S.S.S.S.S.S.S.S.S.S.S.S.S.S.S.S.S.S.S.S.S.S.S.S.S.S.S.S.S.S.S.S.S.S.S.S.S.S.S.S.S.S.S.S.S.S.S.S.S.S.S.S.S.",
"S.S.S.S.S.S.S.S.S.S.S.S.S.S.S.S.S.S.S.S.S.S.S.S.S.S.S.S.S.S.S.S.S.S.S.S.S.S.S.S.S.S.S.S.S.S.S.S.S.S.S.S.S.S.S.S.S.S.S.S.S.S.S.S.",
"S.S.S.S.S.S.S.S.S.S.S.S.S.S.S.S.S.S.S.S.S.S.S.S.S.S.S.S.S.S.S.S.S.S.S.S.S.S.S.S.S.S.S.S.S.S.S.S.S.S.S.S.S.S.S.S.S.S.S.S.S.S.S.S.",
"S.S.S.S.S.S.S.S.S.S.S.S.S.S.S.S.S.S.S.S.S.S.S.S.S.S.S.S.S.S.S.S.S.S.S.S.S.S.S.S.S.S.S.S.S.S.S.S.S.S.S.S.S.S.S.S.S.S.S.S.S.S.S.S.",
"S.S.S.S.S.S.S.S.S.S.S.S.S.S.S.S.S.S.S.S.S.S.S.S.S.S.S.S.S.S.S.S.S.S.S.S.S.S.S.S.S.S.S.S.S.S.S.S.S.S.S.S.S.S.S.S.S.S.S.S.S.S.S.S.",
"S.S.S.S.S.S.S.S.S.S.S.S.S.S.S.S.S.S.S.S.S.S.S.S.S.S.S.S.S.S.S.S.S.S.S.S.S.S.S.S.S.S.S.S.S.S.S.S.S.S.S.S.S.S.S.S.S.S.S.S.S.S.S.S.",
"S.S.S.S.S.S.S.S.S.B.m.B.S.S.S.S.S.S.S.m.S.S.S.S.S.S.S.S.S.S.S.S.S.S.S.S.S.S.S.S.B.S.S.m.S.B.S.S.S.B.S.S.S.B.S.S.S.S.S.S.S.S.S.S.",
"S.S.S.S.S.S.S.S.m.S.S.S.S.S.B.B.B.B.S.S.S.B.z.B.S.S.S.S.S.S.S.S.S.S.S.S.S.S.S.S.S.m.S.S.S.m.z.B.B.B.S.S.S.S.S.B.S.S.S.S.S.S.S.S.",
"S.S.S.S.S.S.S.S.B.S.S.S.B.S.S.S.S.S.m.S.S.S.S.S.S.S.S.S.S.S.S.S.S.S.S.S.S.S.S.S.S.z.S.S.B.S.S.S.S.S.S.S.B.S.S.S.S.S.S.S.S.S.S.S.",
"S.S.S.S.S.S.S.S.S.S.S.B.S.S.S.S.S.B.B.B.S.B.S.B.S.S.S.S.S.S.S.S.S.S.S.S.S.S.S.S.m.S.S.m.B.S.S.B.B.S.S.S.B.m.S.S.S.S.S.S.S.S.S.S.",
"S.S.S.S.S.S.S.S.S.B.S.S.S.S.m.B.S.S.S.S.z.S.S.B.S.S.S.S.S.S.S.S.S.S.S.S.S.S.S.S.S.S.B.z.S.m.B.S.m.B.B.S.S.S.m.S.S.S.S.S.S.S.S.S.",
"S.S.S.S.S.S.S.S.S.B.S.S.S.B.S.S.S.z.B.m.! i V S.S.S.S.S.S.S.S.S.S.S.S.S.S.S.S.S.S.! t D 8.S.S.B.S.S.B.B.S.S.B.S.S.S.S.S.S.S.S.S.",
"S.S.S.S.S.S.S.S.S.S.S.m.B.S.S.m.B.S.S.Y   # # L S.S.S.S.S.S.S.S.S.S.S.S.S.S.S.S...3   # V j.S.S.s.S.S.m.S.S.B.S.S.S.S.S.S.S.S.S.",
"S.S.S.S.S.S.S.S.S.S.S.B.S.S.y.-.` 3.S.c       b S.S.S.S.S.S.S.S.S.S.S.S.S.S.S.S.Y   $   1 S.y.` o.s.S.S.S.S.B.S.S.S.S.S.S.S.S.S.",
"S.S.S.S.S.S.S.S.S.S.B.S.m.S.L #   - 3.z #     z B.S.S.m.S.S.B.S.S.m.m.S.S.S.S.B.Y #     1 y.7     N B.B.S.S.B.S.S.S.S.S.S.S.S.S.",
"S.S.S.S.S.S.S.S.B.S.B.S.S.m.7       [ i   #   z S.z.S.S.S.S.m.S.B.S.S.B.B.S.B.S.L #   # # :.#   #   s.B.S.S.S.j.S.S.S.S.S.S.S.S.",
"S.S.S.S.S.S.S.S.B.B.m.S.S.S.1   #   L z   $   h S.S.S.m.s.S.S.S.S.S.S.m.S.S.z.B.Y     # $ o.      $ w.S.z.S.z.S.S.S.S.S.S.S.S.S.",
"S.S.S.S.S.S.S.S.S.S.S.S.j.j.- $   # L b       z S.B.z.S.S.S.S.S.B.S.B.S.B.B.S.S.!       3 o.  #     8.m.S.S.B.S.S.S.S.S.S.S.S.S.",
"S.S.S.S.S.S.S.S.B.S.m.S.S.S.$       R b     # z 5.S.S.S.S.s.B.S.B.S.S.S.S.B.S.3.!   #   1 o.    1   w.S.S.m.S.B.S.S.S.S.S.S.S.S.",
"S.S.S.S.S.S.S.S.S.m.m.S.z.B.5       R h #   # i ( j.S.S.S.S.S.B.S.S.z.S.S.S.z.' L   $   $ ..        w.S.S.S.B.S.S.S.S.S.S.S.S.S.",
"S.S.S.S.S.S.S.S.S.B.S.8.z #.1 # #   ! z       h ! h 7 q w t t t t u u q q u i h L   #   - o.  # 1   :.h :.z.S.S.S.S.S.S.S.S.S.S.",
"S.S.S.S.S.S.S.S.B.S.B.{   =.$       R b       b !     $   $         $   $     V !       1 #.        :.  D S.S.m.S.S.S.S.S.S.S.S.",
"S.S.S.S.S.S.S.S.S.S.m.|   *.$ #     ! b       c /   $     #   #     $   # $   N Y   #   1 ..      # 1.  G S.S.S.S.S.S.S.S.S.S.S.",
"S.S.S.S.S.S.S.S.S.B.S.:.7 [ -       Y b   $   z Y -   $ 1     $ #     -     # z R   $   1 #.      $ ..5 { B.m.B.S.S.S.S.S.S.S.S.",
"S.S.S.S.S.S.S.S.S.S.S.S.z.B.5     # L b   #   h ( w.j.s.i.z.m.s.s.B.j.z.z.S.j./ Y   #   - *.        i.s.S.S.S.S.S.S.S.S.S.S.S.S.",
"S.S.S.S.S.S.S.S.S.S.m.z.S.m.# $   $ L V       z <.S.S.S.S.S.S.B.S.S.B.S.B.S.S.*.Y       - #.    -   8.S.B.j.S.S.S.S.S.S.S.S.S.S.",
"S.S.S.S.S.S.S.S.m.S.S.S.z.S.-   #   L N       c S.S.i.S.S.S.S.S.S.B.S.S.S.m.S.S.R     # 1 #.  #   $ y.S.S.S.B.B.S.S.S.S.S.S.S.S.",
"S.S.S.S.S.S.S.S.S.z.m.B.S.S.- # #   Y c #     c S.S.S.S.B.S.B.m.B.S.S.m.S.S.z.m.R     # - #.        w.S.m.S.S.S.S.S.S.S.S.S.S.S.",
"S.S.S.S.S.S.S.S.S.S.B.S.S.m.$ #     ' h   #   z S.B.m.B.S.S.S.S.S.S.S.S.S.B.m.S.Y       - :.    1   8.S.S.S.S.z.S.S.S.S.S.S.S.S.",
"S.S.S.S.S.S.S.S.S.m.S.S.z.S.S     # -.b       c m.S.S.m.S.j.B.S.S.S.S.B.B.S.S.B.Y $     3 4.1     i B.B.B.m.S.S.S.S.S.S.S.S.S.S.",
"S.S.S.S.S.S.S.S.S.B.S.B.B.S.w.! V #.B.z #     h S.S.S.S.S.S.S.S.S.S.S.S.S.S.S.S.L     # - S.1.A G 5.S.B.S.S.B.S.S.S.S.S.S.S.S.S.",
"S.S.S.S.S.S.S.S.S.B.S.S.B.S.S.z.S.S.B.J   # # D S.S.S.S.S.S.S.S.S.S.S.S.S.S.S.S.] -     c z.S.S.z.S.S.B.S.S.z.S.S.S.S.S.S.S.S.S.",
"S.S.S.S.S.S.S.S.S.B.S.S.m.z.S.S.S.m.m.0.c   e i.S.S.S.S.S.S.S.S.S.S.S.S.S.S.S.S.j.V 1 e <.S.S.m.S.S.m.B.S.B.B.S.S.S.S.S.S.S.S.S.",
"S.S.S.S.S.S.S.S.m.S.B.S.S.S.S.m.S.S.S.S.j.S.S.S.S.S.S.S.S.S.S.S.S.S.S.S.S.S.S.S.S.m.s.z.S.S.j.S.z.S.S.S.B.S.S.B.S.S.S.S.S.S.S.S.",
"S.S.S.S.S.S.S.S.m.S.S.B.S.S.S.S.B.m.B.B.S.B.S.B.S.S.S.S.S.S.S.S.S.S.S.S.S.S.S.S.B.S.S.S.B.S.S.B.S.S.S.S.B.S.S.m.S.S.S.S.S.S.S.S.",
"S.S.S.S.S.S.S.S.S.S.S.B.B.z.m.S.S.S.S.S.m.z.S.S.S.S.S.S.S.S.S.S.S.S.S.S.S.S.S.S.B.S.z.B.B.S.S.m.S.m.m.B.B.S.S.S.S.S.S.S.S.S.S.S.",
"S.S.S.S.S.S.S.S.S.m.B.S.S.S.S.S.S.m.z.S.S.S.S.S.S.S.S.S.S.S.S.S.S.S.S.S.S.S.S.S.S.S.S.S.S.z.S.S.S.S.S.S.S.m.B.S.S.S.S.S.S.S.S.S.",
"S.S.S.S.S.S.S.S.S.S.S.S.m.S.S.S.S.S.S.B.S.m.B.S.S.S.S.S.S.S.S.S.S.S.S.S.S.S.S.S.S.S.j.S.S.S.S.S.S.S.S.B.S.S.S.S.S.S.S.S.S.S.S.S.",
"S.S.S.S.S.S.S.S.S.S.S.S.S.S.S.S.S.S.S.S.S.S.S.S.S.S.S.S.S.S.S.S.S.S.S.S.S.S.S.S.S.S.S.S.S.S.S.S.S.S.S.S.S.S.S.S.S.S.S.S.S.S.S.S.",
"S.S.S.S.S.S.S.S.S.S.S.S.S.S.S.S.S.S.S.S.S.S.S.S.S.S.S.S.S.S.S.S.S.S.S.S.S.S.S.S.S.S.S.S.S.S.S.S.S.S.S.S.S.S.S.S.S.S.S.S.S.S.S.S.",
"S.S.S.S.S.S.S.S.S.S.S.S.S.S.S.S.S.S.S.S.S.S.S.S.S.S.S.S.S.S.S.S.S.S.S.S.S.S.S.S.S.S.S.S.S.S.S.S.S.S.S.S.S.S.S.S.S.S.S.S.S.S.S.S.",
"S.S.S.S.S.S.S.S.S.S.S.S.S.S.S.S.S.S.S.S.S.S.S.S.S.S.S.S.S.S.S.S.S.S.S.S.S.S.S.S.S.S.S.S.S.S.S.S.S.S.S.S.S.S.S.S.S.S.S.S.S.S.S.S.",
"S.S.S.S.S.S.S.S.S.S.S.S.S.S.S.S.S.S.S.S.S.S.S.S.S.S.S.S.S.S.S.S.S.S.S.S.S.S.S.S.S.S.S.S.S.S.S.S.S.S.S.S.S.S.S.S.S.S.S.S.S.S.S.S.",
"S.S.S.S.S.S.S.S.S.S.S.S.S.S.S.S.S.S.S.S.S.S.S.S.S.S.S.S.S.S.S.S.S.S.S.S.S.S.S.S.S.S.S.S.S.S.S.S.S.S.S.S.S.S.S.S.S.S.S.S.S.S.S.S.",
"S.S.S.S.S.S.S.S.S.S.S.S.S.S.S.S.S.S.S.S.S.S.S.S.S.S.S.S.S.S.S.S.S.S.S.S.S.S.S.S.S.S.S.S.S.S.S.S.S.S.S.S.S.S.S.S.S.S.S.S.S.S.S.S.",
"S.S.S.S.S.S.S.S.S.S.S.S.S.S.S.S.S.S.S.S.S.S.S.S.S.S.S.S.S.S.S.S.S.S.S.S.S.S.S.S.S.S.S.S.S.S.S.S.S.S.S.S.S.S.S.S.S.S.S.S.S.S.S.S.",
"S.S.S.S.S.S.S.S.S.S.S.S.S.S.S.S.S.S.S.S.S.S.S.S.S.S.S.S.S.S.S.S.S.S.S.S.S.S.S.S.S.S.S.S.S.S.S.S.S.S.S.S.S.S.S.S.S.S.S.S.S.S.S.S.",
"S.S.S.S.S.S.S.S.S.S.S.S.S.S.S.S.S.S.S.S.S.S.S.S.S.S.S.S.S.S.S.S.S.S.S.S.S.S.S.S.S.S.S.S.S.S.S.S.S.S.S.S.S.S.S.S.S.S.S.S.S.S.S.S.",
"S.S.S.S.S.S.S.S.S.S.S.S.S.S.S.S.S.S.S.S.S.S.S.S.S.S.S.S.S.S.S.S.S.S.S.S.S.S.S.S.S.S.S.S.S.S.S.S.S.S.S.S.S.S.S.S.S.S.S.S.S.S.S.S.",
"S.S.S.S.S.S.S.S.S.S.S.S.S.S.S.S.S.S.S.S.S.S.S.S.S.S.S.S.S.S.S.S.S.S.S.S.S.S.S.S.S.S.S.S.S.S.S.S.S.S.S.S.S.S.S.S.S.S.S.S.S.S.S.S.",
"S.S.S.S.S.S.S.S.S.S.S.S.S.S.S.S.S.S.S.S.S.S.S.S.S.S.S.S.S.S.S.S.S.S.S.S.S.S.S.S.S.S.S.S.S.S.S.S.S.S.S.S.S.S.S.S.S.S.S.S.S.S.S.S.",
"S.S.S.S.S.S.S.S.S.S.S.S.S.S.S.S.S.S.S.S.S.S.S.S.S.S.S.S.S.S.S.S.S.S.S.S.S.S.S.S.S.S.S.S.S.S.S.S.S.S.S.S.S.S.S.S.S.S.S.S.S.S.S.S.",
"S.S.S.S.S.S.S.S.S.S.S.S.S.S.S.S.S.S.S.S.S.S.S.S.S.S.S.S.S.S.S.S.S.S.S.S.S.S.S.S.S.S.S.S.S.S.S.S.S.S.S.S.S.S.S.S.S.S.S.S.S.S.S.S.",
"S.S.S.S.S.S.S.S.S.S.S.S.S.S.S.S.S.S.S.S.S.S.S.S.S.S.S.S.S.S.S.S.S.S.S.S.S.S.S.S.S.S.S.S.S.S.S.S.S.S.S.S.S.S.S.S.S.S.S.S.S.S.S.S."
};
