/* XPM */
static char *fc0a16188bd34eb6bfdf7cd6c2455ef2XMUZrVXcd581GEBF[] = {
/* columns rows colors chars-per-pixel */
"64 64 123 2 ",
"   c #060606",
".  c gray3",
"X  c gray4",
"o  c #0B0B0B",
"O  c #0C0C0C",
"+  c gray5",
"@  c #0E0E0E",
"#  c gray6",
"$  c #101010",
"%  c #111111",
"&  c gray7",
"*  c #131313",
"=  c gray8",
"-  c #151515",
";  c #161616",
":  c gray9",
">  c #181818",
",  c #191919",
"<  c gray10",
"1  c #1B1B1B",
"2  c gray11",
"3  c #1D1D1D",
"4  c #1E1E1E",
"5  c gray12",
"6  c #202020",
"7  c gray13",
"8  c #222222",
"9  c #232323",
"0  c gray14",
"q  c #252525",
"w  c gray15",
"e  c #272727",
"r  c #282828",
"t  c gray16",
"y  c #2A2A2A",
"u  c gray17",
"i  c #2C2C2C",
"p  c #2D2D2D",
"a  c gray18",
"s  c #2F2F2F",
"d  c gray19",
"f  c #313131",
"g  c #323232",
"h  c gray20",
"j  c #343434",
"k  c #353535",
"l  c gray21",
"z  c #373737",
"x  c gray22",
"c  c #393939",
"v  c #3A3A3A",
"b  c gray23",
"n  c #3C3C3C",
"m  c gray24",
"M  c #3E3E3E",
"N  c #3F3F3F",
"B  c gray25",
"V  c #414141",
"C  c gray26",
"Z  c #434343",
"A  c #444444",
"S  c gray27",
"D  c #464646",
"F  c gray28",
"G  c #484848",
"H  c #494949",
"J  c gray29",
"K  c #4B4B4B",
"L  c #4C4C4C",
"P  c gray30",
"I  c #4E4E4E",
"U  c gray31",
"Y  c #505050",
"T  c #515151",
"R  c gray32",
"E  c #535353",
"W  c gray33",
"Q  c #555555",
"!  c #565656",
"~  c gray34",
"^  c #585858",
"/  c gray35",
"(  c #5A5A5A",
")  c #5B5B5B",
"_  c gray36",
"`  c #5D5D5D",
"'  c gray37",
"]  c #5F5F5F",
"[  c #606060",
"{  c gray38",
"}  c #626262",
"|  c gray39",
" . c #646464",
".. c #656565",
"X. c gray40",
"o. c #676767",
"O. c #686868",
"+. c DimGray",
"@. c #6A6A6A",
"#. c gray42",
"$. c #6C6C6C",
"%. c #6D6D6D",
"&. c gray43",
"*. c #6F6F6F",
"=. c #717171",
"-. c #727272",
";. c gray46",
":. c #767676",
">. c #777777",
",. c #7B7B7B",
"<. c #7C7C7C",
"1. c #7E7E7E",
"2. c #808080",
"3. c #818181",
"4. c gray51",
"5. c #838383",
"6. c gray52",
"7. c gray53",
"8. c gray56",
"9. c #929292",
"0. c #9D9D9D",
"q. c gray63",
"w. c #AFAFAF",
/* pixels */
"R R U U U U U U U H H D H H H D D D D D D C C C h c N z h z z z c N D D C N N c C N c c N C N N N N N N N N N N N N N N N N N N ",
"R R R U U U U U H H H H H H D D D H H D N z t w , , 5 5 5 , , , w t i h z c C D C C C N c c N N N N N N N N N N N N N N N N N N ",
"R R R U U U U U H H U U H H H H R D c i w 9 9 5 w 5 5 w 9 = * = + + + + * = 5 9 h c C C N c N N N N N N N N N N N N N N N N C C ",
"R R R R U U U U U U H H H H H H H c w , , 9 w t i t w w w 9 , , , = * + o o + + , w h N C C N N N N N N N N N N N N N N N C C C ",
"R R R R U U U U U U H U U U D C h w 5 5 w i t 9 t i t 9 9 t w 5 w 9 5 , = = = = + * , t z C N N N N N N N N N N N N N C N N C C ",
"R R R R R U U U H H U U U D z t w 9 5 w i i t 9 i c z w 9 t w , , , = = = = = = * + + = w h N N N N N N N N N N N N N N C N C C ",
"R R W R R U U U D U U H N h 9 5 9 9 9 9 9 w t t i z z t 9 9 , * 5 , = = = = = = = * * * = w z C N N N N N N N C C C C N C C C C ",
"R W W W R R U U H U U C i 5 = , = 5 9 9 9 9 w i t i h h i w 9 5 , = = * * = = * + = 5 , = , i C c c N N N N C C C N C C C C C C ",
"W R R R R R R U R R H w 9 t , w 5 = , w i t i h h z c c N N c h i i w 9 5 , , , 5 5 = , 9 9 w c C N N N C N N D N C C C C C C C ",
"W R R R R R R U U R C t t h t i w 9 9 t i t t h h c C D H H D C N N c z i i i i i t t i z h i i N C N N C N N C C C C C C C C C ",
"W R R R R R R R R U h 9 w 9 w 9 t w w t t t i z D H R W W R H D D C C N c c c z c z c C H H N w c C N c D C N C C C C N C C C C ",
"W W R R W R R R R D 5 , , = 9 , 9 5 , 5 9 w h N R W ) ) W R U D C C N N c c z z c z C U W ' R h t N N c D C c C N N N C C C C C ",
"W W R W W W R R U z * = 5 , i t 9 5 , , 5 w z C U R W W W W R R D C C N c c z z z z C U W } } H w z N N D C N C N C C C C C C C ",
"W W W W W W R R H i = , 9 9 i i t w 9 5 9 i c C U R W W W W W W H D C N c c z h z z C H U ' } } h z c C C C C C C C C C C C C C ",
"W W W W W W R R U w , 9 9 9 9 9 w 9 9 9 t z N D R W ) ) W R R U D C c z z z z h z z c C U R ' O.R z c D C C D N C C C C C C C C ",
"W W W W W W R R H 5 9 w w w , 5 , , 5 9 i N D D U W ) ) W R R U D N c z z z z h h h h z H U W O.O.N c H C C H c C C C C C C C C ",
"W W W W W W W W c t 9 w 5 , 9 9 w i h h z N D D H W ' ) W R U U C C C C N z z z z h H C N R W ..;.) h C C D C D C C C C C C C C ",
"W W W W W W W R h 9 5 9 5 , 9 9 t i i i h N H R ' ) W R W W U C c z h z z z h h i z H H N D W ..=...z C D C C C C C C C C C C C ",
") W W W W W R R t , = 5 , 5 9 9 t i h h c H ) } } ' W R R R D z z i w t i h h h t c H R C c R ..O.=.N N H C D C C C D D D D D D ",
") W W W W R R R t , = , , 5 w 9 t i z C U ) ' } W ) ) R D N h t w 5 , , 5 9 w t i N D R C h R ' } 1.D c H C H D D D D D D D D D ",
") W W W W W R R w , = , 5 9 w 9 w t z H ) } ' ) R W W H c i t w 5 , = = * * = 5 w h z D N z R ) ..4.W c D N D D D D D D D D D D ",
") W W W W W R R w , = , 5 w t 9 t i c U } ..' ) W R H C N N c z h i t 9 = + + = , 5 9 h z N R U O.4.O.D D C D C D D D D D D D D ",
") ) W W W W W W t 5 , 5 5 w t 9 t h C ) ..} ' ) W R H D C C N z z i t w , * * = 5 , 9 w i C C c W } O.D D D C D D D D D D D D D ",
") ) W W W ) W W i w 5 9 9 t t 5 9 i D ' ..' W R W W W H N h w , * + + * = = , 5 t 9 i 9 t C h w z c ' c N C C D D D D D D D D D ",
") W W ) R W ) W N i D N w t w 9 w z H ' } } ) R W U C h t w 9 5 9 = o   + = , 5 t c C c C H + 5 9 9 w D c C H C D D D D D D D D ",
"' W ) ) W W ) W c N } } U U c t t c U ' } ' ) W ) R D c h i i i i w , = * + * = c W R C W C , 5 * = , h t N H D D D D D D D D D ",
"' ) ) ' W ) ) R h U O.} ' } U z z C R ' } ' ) W W U D N z h i i t w 9 5 * + * 5 C } ) D ' z 5 = = w i N h c D C D D D D D D D D ",
"' ) ' ' ) ) W U c W } W } &.) c c D W ' ' ) ) ) U H H D N h t 9 , , , , = * , t N ' W C R z = * * i c W D C D D D D D D D D D D ",
") ) ' ' ) ) W D C ) ) W ..;.' z c D W ' ' ) ) ) W W W R H N h t 9 5 , , = = 9 h C W W D C D * = o = 5 D H H D H D D D D D D D D ",
") ) ) ) W ) W D D H N C W } W i h N R ) ) ) W ) ' ) ) W U D N c i 9 5 5 5 5 i N R R ) H c U , , 9 9 * h C H C D D D D D D D D D ",
") ) ' ) ) ' W D z i w c H W W h 9 h H W W R W W ) ) W R U D N c i w 9 9 9 w z U ' R ' U N H h , z H c C C D C C D D D D D D D D ",
") ) ' ) ) ' ) D 9 5 i W } } } c , t C U R R R W R R W W U D c h i w 9 w 9 9 z R ..) ' R H D U , 5 ) ' ) H H D U D D D D D D D D ",
"' ) ) ) ' ) W U 9 , N O.&.O.) N w t c U ) W W W H W R D D N z h t w 9 5 5 w h C U } ' ' U H c C w N D U H H N H D D D D H D D D ",
") ) ) ) ' ) W R c h C W ' ..' z t t z D R W W R R W H N N c h h i 9 , = , w N W D D C R U H C ) N c ) &.C C U C D D D D H D D D ",
"' ) ) ) ' ) W R H H H D U ..) t i i h c D U R H U U C z c N c z z w , 5 w i H ....' ) &.' C c ) W D O.6.U D U C D D D D D D D D ",
") ) ) ) ' ' ) W R W W U W ..W w i z z z c D D N N c h h D U C z 9 = = 9 t t c R i i z U H z C O.R W =.8.O.U C H D D D D D D D D ",
") ) ) ' ' ' ) ) W ) ) ) ' ' U i i c N z h c c h i t w c R R z w = * , w t 9 w i N c c N C z N W z R 4.q.=.U C H D D D D D D D D ",
"' ' ' ' ' ) ) ) ) W W ' ' U c h i N D c h h i t w 5 9 N R C 9 * * * , 9 9 , = , 5 5 9 w D D C h , N 8.w.' D U D D D D D D D D D ",
"' ' ' ' ) ) ) ) ) R R ) ) D h i h c C N z i t w w , 9 N H i + * + * = = = = * + = , 9 9 H U N 9 , D 6.9.U C U D D D D D D D H D ",
"' ' ' ' ) ) ) ) ) W W } ..U z h h c N N z i w 9 9 = 5 N D 9 o , , 9 w w w w 9 5 5 9 w , c C D z w ' &.} H H D H D D D D D D D D ",
"' ' ' ' ) ' ) ) ) ) R } ..C z N z c N N c h t 9 = = 5 i z 9 + + = t N D C c h h t h t = z D i C w ' O.U D H D H H D D D D D D H ",
"' ' ' ' ) ' ' ) ) ) R } } C z C c c z h h i t 9 = * = t z w * + + * 9 h N N c h t 9 t z H R c i i ) ' H H H D H H D D D D D D H ",
"' ' ' ' ' ) ' ' ) ) R } ) N c D C c i t w t w 9 = + + 9 z t = * , 9 h D ) } ) R W h 5 i N ' O.c c R U C H U D H H H D D D D H H ",
"' ' ' ' ' ' ' ' ) ) W ' W z c D H C z t 9 w w 9 = + + 5 i t = * 5 9 t i h N H W } ) } ,.) z D z c C C C H H D H H H D D D D H H ",
"' ' ' ' ' ' ' ' ) ) W } U h c C H H N i 9 5 5 5 = * + , t w = * 5 w z c z h z N D D } 0.4.w o = i z N D H D D U H H H D D H H H ",
"' ' ' ' ' ' ' ' ) ) ) } U h c c D D C h 9 , , , = = * , w 9 = * o = t c N c h i z h i ) ;.R 9 + t h C H H D D U H H H H H H H H ",
"} ' ' ' ' ' ' ' ' ) ' ..U h z h N N c i 9 5 , , , = * , w 9 = * 5 , , 5 t z C D i C U R O.=.C , t h D U H D H H H H H H H H H H ",
"} } ' ' ' ' ' ' ' W ' O.U h h t c c h t w 9 5 , , = * = w 9 = * o * = , 5 9 w t h 9 N ) ;.1.H w i z D R H H H H H H H H H H H H ",
"} ' ' ' ' ' ' ' } W ) ..) c w w t i h t w 9 , * = * * 5 9 5 = * * * = = , , 5 5 = , 5 i C N i i t c H U H H U H H H H H H H H H ",
"} ' ' ' ' ' ' ' ' ' } ..' D i 5 w t t w 9 9 9 w = * * , 9 9 , * * * = = , , 5 5 = , 9 c U C z c h N H U H H U H H H H H H H H H ",
"} } ' ' ' ' ' ' ) ' } } } ) C w 5 5 5 w w 9 5 5 = + + , w w 5 = * * = = , , , , = , t D U N h c N D U U H H H H H H H H H H H H ",
"} } } ' ' ' ' ' W ' } ' ....W N i 5 = , 9 9 , * = + + , w w 5 = * * * = = = , , , 5 i D H z t c H H U U H H H H H H H H H H H H ",
"} } } ' ' ' ' ' ) ' ' } ....} ' U z 5 = = , , 9 = * * , 9 t 9 , * * * = = = = = , , w N C h i D R R U H H H H H H H H H H H H H ",
"} } } } ' ' ' ' ' ' ' } ..} ..O.} W C i 5 * * , = = * = 9 w w 5 , = = = * * * * , , 9 i h w i H ) R H H U U H H U U H H H H H H ",
"} } } } ' ' ' ' ' ' } } } } } } } } ) U c t , + * = = = 5 w t w 9 5 , = * * * * , , , 9 w 9 i H ' R H H U U U H U U U H H H H H ",
"} } } } } ' ' ' W ' } } ....} ) } ' ) W R U c 9 * * = = , w t t w 9 5 , = * * * * = = , w t c W ' R H H U U H H U U U H H H H H ",
"' } } } } } ' ) ) ' } } ..} } } ) W R R R U D N 9 , * * , 9 t i h i w 9 5 5 , = * , 9 w t z D W } W H U U H H U H H H H H H H H ",
"} } } ' } } ' ) ) ' } ......} ' W R R R R R U D c i 5 = = 9 w t h i w 9 5 5 , 5 = = , w h c H ) ' R H U U H H U H H H H H H H H ",
"} } ' ' } } ) R ' } ......} ' ' W R R R R R U H U C i 5 * = , 9 w w 9 9 5 , , , 5 = = 9 i z C R ) U H U U H H U U U H H H H H H ",
") ' } } } ' W U ' } ..O...} ' ) W W R U U U H H H H C i = + * 5 , 5 9 9 5 , = = 5 * = 9 t h N U R U H U U H H H U U U H H H H H ",
"} } ..} ) R U R } ....O...} ' ) ) W R U U H H H D U U C i 5 = , = , 5 5 , = = = = * = 9 i h C W U H H H U U U U U U H H H H H H ",
"O...} W H D R ) } ....O...} ) W ) W R R U U R R R U U H D c w = = = * * + * * = * * , 9 t z C R U H H H U U U U U U H H U U H H ",
"' W R H D D R } } ........' ) W W W W R R R R W W R U U H C i 5 , , = = = = = = * , , 9 t c C D H H H H U U U U U U U H U U U U ",
"D C C D D H W } } ......} ' ) W W W W R R U R R W W R U C z i w 9 9 9 w w w 5 , * , 5 9 h D U U H H H H U U U U U U U U U U U U "
};
