/* XPM */
static char *eb613eb7aaeb4a75f5f8e5f2c0de0cc2jJGSY8THwqKAltK8[] = {
/* columns rows colors chars-per-pixel */
"64 64 229 2 ",
"   c black",
".  c #010101",
"X  c #020202",
"o  c gray1",
"O  c #040404",
"+  c gray2",
"@  c #060606",
"#  c #070707",
"$  c gray3",
"%  c #090909",
"&  c gray4",
"*  c #0B0B0B",
"=  c #0C0C0C",
"-  c gray5",
";  c #0E0E0E",
":  c gray6",
">  c #101010",
",  c #111111",
"<  c gray7",
"1  c #131313",
"2  c gray8",
"3  c #151515",
"4  c #161616",
"5  c gray9",
"6  c #181818",
"7  c #191919",
"8  c gray10",
"9  c #1B1B1B",
"0  c gray11",
"q  c #1D1D1D",
"w  c #1E1E1E",
"e  c gray12",
"r  c #202020",
"t  c gray13",
"y  c #222222",
"u  c #232323",
"i  c gray14",
"p  c #252525",
"a  c gray15",
"s  c #272727",
"d  c #282828",
"f  c gray16",
"g  c #2A2A2A",
"h  c gray17",
"j  c #2C2C2C",
"k  c #2D2D2D",
"l  c gray18",
"z  c #2F2F2F",
"x  c gray19",
"c  c #313131",
"v  c #323232",
"b  c gray20",
"n  c #343434",
"m  c #353535",
"M  c gray21",
"N  c #373737",
"B  c gray22",
"V  c #393939",
"C  c #3A3A3A",
"Z  c gray23",
"A  c #3C3C3C",
"S  c gray24",
"D  c #3E3E3E",
"F  c #3F3F3F",
"G  c gray25",
"H  c #414141",
"J  c gray26",
"K  c #434343",
"L  c #444444",
"P  c gray27",
"I  c #464646",
"U  c gray28",
"Y  c #484848",
"T  c #494949",
"R  c gray29",
"E  c #4B4B4B",
"W  c #4C4C4C",
"Q  c gray30",
"!  c #4E4E4E",
"~  c gray31",
"^  c #505050",
"/  c #515151",
"(  c gray32",
")  c #535353",
"_  c gray33",
"`  c #555555",
"'  c #565656",
"]  c gray34",
"[  c #585858",
"{  c gray35",
"}  c #5A5A5A",
"|  c #5B5B5B",
" . c gray36",
".. c #5D5D5D",
"X. c gray37",
"o. c #5F5F5F",
"O. c #606060",
"+. c gray38",
"@. c #626262",
"#. c gray39",
"$. c #646464",
"%. c #656565",
"&. c gray40",
"*. c #676767",
"=. c #686868",
"-. c DimGray",
";. c #6A6A6A",
":. c gray42",
">. c #6C6C6C",
",. c #6D6D6D",
"<. c #6F6F6F",
"1. c gray44",
"2. c #717171",
"3. c #727272",
"4. c gray45",
"5. c #747474",
"6. c gray46",
"7. c #767676",
"8. c #777777",
"9. c gray47",
"0. c #797979",
"q. c gray48",
"w. c #7B7B7B",
"e. c #7C7C7C",
"r. c gray49",
"t. c #7E7E7E",
"y. c gray50",
"u. c #808080",
"i. c #818181",
"p. c #838383",
"a. c #848484",
"s. c gray52",
"d. c #868686",
"f. c gray53",
"g. c #888888",
"h. c #898989",
"j. c gray54",
"k. c #8B8B8B",
"l. c gray55",
"z. c #8D8D8D",
"x. c #8E8E8E",
"c. c gray56",
"v. c #909090",
"b. c gray57",
"n. c #929292",
"m. c #939393",
"M. c gray58",
"N. c #959595",
"B. c gray59",
"V. c #979797",
"C. c #989898",
"Z. c gray60",
"A. c #9A9A9A",
"S. c #9B9B9B",
"D. c gray61",
"F. c #9D9D9D",
"G. c gray62",
"H. c #9F9F9F",
"J. c #A0A0A0",
"K. c gray63",
"L. c #A2A2A2",
"P. c gray64",
"I. c #A4A4A4",
"U. c #A5A5A5",
"Y. c gray65",
"T. c #A7A7A7",
"R. c gray66",
"E. c #A9A9A9",
"W. c #AAAAAA",
"Q. c gray67",
"!. c #ACACAC",
"~. c gray68",
"^. c #AEAEAE",
"/. c #AFAFAF",
"(. c gray69",
"). c #B1B1B1",
"_. c #B2B2B2",
"`. c gray70",
"'. c #B4B4B4",
"]. c gray71",
"[. c #B6B6B6",
"{. c #B7B7B7",
"}. c gray72",
"|. c #B9B9B9",
" X c gray73",
".X c #BBBBBB",
"XX c #BCBCBC",
"oX c gray74",
"OX c gray",
"+X c gray75",
"@X c #C0C0C0",
"#X c #C1C1C1",
"$X c gray76",
"%X c #C3C3C3",
"&X c #C5C5C5",
"*X c gray78",
"=X c #C8C8C8",
"-X c #CACACA",
";X c gray80",
":X c #CDCDCD",
">X c gray81",
",X c #D0D0D0",
"<X c LightGray",
"1X c gray83",
"2X c #D5D5D5",
"3X c gray84",
"4X c gray85",
"5X c #DADADA",
"6X c gray86",
"7X c #DDDDDD",
"8X c gray88",
"9X c #E1E1E1",
"0X c #E2E2E2",
"qX c #E4E4E4",
"wX c #E6E6E6",
"eX c #E7E7E7",
"rX c #E9E9E9",
"tX c #EAEAEA",
"yX c gray92",
"uX c #ECECEC",
"iX c #EEEEEE",
"pX c #F1F1F1",
"aX c gray95",
"sX c #F4F4F4",
"dX c gray96",
"fX c #F6F6F6",
"gX c #F8F8F8",
"hX c gray99",
"jX c white",
/* pixels */
"                                                                                                                                ",
"                                                                                                                                ",
"                                                                                                                                ",
"                                                                                                                                ",
"                                                                                                                                ",
"                                                                                                                                ",
"                                                                                                                                ",
"                                                                                                                                ",
"x.x.x.x.x.x.x.x.v.v.v.v.v.v.v.v.x.x.v.v.v.v.v.v.Z.k.G.N.x.G.Z.Z.K.E.K.x.G.E.x.p.=.| | a.x.v.Z.Y.E.^.^._.[.E.Y.[.E.Y.E.E.Y.K.K.Y.",
"N.N.N.N.N.N.N.N.N.N.N.N.N.N.N.N.N.N.Z.Z.Z.Z.Z.Z.Z.Z.G.G.K.Y.K.E.K.E.K.a.5.+.m r p z B ! m f H $.X.N. X[._. X[.^._.^.^.^.^.E.E.E.",
"N.N.N.N.N.N.N.N.N.N.N.N.N.N.N.N.Z.Z.Z.Z.Z.Z.Z.Z.N.K.Z.G.Y.K.G.G.Z.p.| f 8 2 $ 2 , 2 p p 2 + 8 B r ^ N.oX X_.[. X[._._._._.^.^.^.",
"N.N.N.N.N.N.N.N.N.N.N.N.N.N.N.N.N.N.N.Z.Z.Z.Z.Z.N.K.Z.G.G.Z.Z.5.H f e 2 2 ,     - $ , , 8 2 8 f p e R N.[.[.[.[.[._.^.^.^.^.E.E.",
"N.N.N.N.N.N.N.N.N.N.N.N.Z.Z.Z.Z.Z.Z.Z.Z.Z.Z.Z.Z.G.G.G.Y.Z.K.G.! f , - - - - + $     - - 8 p e f H p r L r._.oXE.[.[._.^.^.E.E.Y.",
"N.N.N.N.N.N.N.N.N.N.N.N.Z.Z.Z.Z.N.Z.Z.Z.Z.Z.Z.Z.G.N.G.Y.G.E.x.m 2 - 8 8 - +   + + $ $ - e D e p ! D b z D =.Z._._.[.[._.^.^.^.E.",
"N.N.N.N.N.N.N.N.N.N.N.N.N.N.N.N.N.N.N.N.N.N.N.N.Z.N.G.Z.K.G.+.e - + , -     - 8 , ,   $ e ! 2 2 R D m B z p ! v.E._.[._.^.^.^.^.",
"Z.Z.Z.Z.Z.Z.Z.Z.N.N.N.N.Z.Z.Z.Z.Z.Z.Z.Z.Z.Z.Z.Z.Z.G.G.N.E.x.m , -   $ $   - 2 8 2 8   - 8 ] 8 e ! z e B H r 8 H K.E._.^.E.E.E.^.",
"Z.Z.Z.Z.Z.Z.Z.Z.N.N.N.N.N.N.N.N.N.N.Z.Z.Z.Z.Z.Z.G.Y.Z.N.K.2.r 2 $ + $ +   + , , 2 , , 2 r p e 2 m m - ^ L r 2 r p. X^.E._.K.^.^.",
"Z.Z.Z.Z.Z.Z.Z.Z.Z.Z.Z.Z.Z.Z.Z.Z.Z.Z.Z.Z.Z.Z.Z.Z.N.G.K.Z.G.H - - - + $ +   + - , , , , , 8 e 8 , 2 e 2 H p m L f ] E.[.^._.E.^.Y.",
"Z.Z.Z.Z.Z.Z.Z.Z.Z.Z.Z.Z.Z.Z.Z.Z.Z.Z.Z.Z.Z.G.G.G.G.Z.E.K.G.8   $ e , , - $ , 8 8 , , , , 2 8 2 , - m r z z ^ $.X.m Z.[._._.^._.Y.",
"Z.Z.Z.Z.Z.Z.Z.Z.Z.Z.Z.Z.Z.Z.Z.Z.Z.Z.Z.Z.G.G.G.G.Y.Z.K.K.N., + + 8 - + + + $ 2 2 8 e e 8 2 2 , - - f 8 r b L ! >.H N._.^.^.^._.E.",
"Z.Z.Z.Z.Z.Z.Z.Z.Z.Z.Z.Z.Z.Z.Z.Z.Z.Z.Z.Z.Z.G.G.G.K.G.Z.K.0.2 $ + 2 +       $ 2 8 f z z p r r 8 , 2 + 2 f e p b ^ >.Z.^.^.^.^.^.^.",
"Z.Z.Z.Z.Z.Z.Z.Z.Z.Z.Z.Z.Z.Z.Z.Z.Z.Z.Z.Z.Z.G.G.G.G.Y.K.K.| 2 $ $ , $ $ - - , e p b m b b m H H m z f b f r p f ] v.K.^._.[.^.E.E.",
"Z.Z.Z.Z.Z.Z.Z.Z.Z.Z.Z.Z.Z.Z.Z.Z.Z.Z.Z.G.G.G.G.G.G.K.E.K.^ 8 $ $ $ + - 8 8 2 e p b b b b H | X.] ^ >.0.] ] L f $.K.E._.[._._.E.E.",
"Z.Z.Z.Z.Z.Z.Z.Z.Z.Z.Z.Z.Z.Z.Z.Z.G.G.G.G.G.G.G.G.K.N.Y.Z.^ e + + , , e z f p f z B m f f D | X.^ 0.v.<XoXZ.2.R $.K.E.[._.^.^.E.^.",
"G.G.G.G.Z.Z.G.G.Z.G.G.G.G.G.G.G.G.G.G.G.G.G.G.G.Z.E.Z.K.R 2 + - - 8 p f p p f z D m z b B R X.X.0.^.4XsXwXx.] X.K.E.^._._.^.E.^.",
"G.G.G.G.Z.Z.G.G.G.G.G.G.G.G.G.G.G.G.G.G.G.G.G.G.K.K.G.K.R $   - , e f z b b m B m f f z D ! +.0.N.E.9XsXhXN.X.5.Y.E._._._.^.E.^.",
"G.G.G.G.G.G.G.G.G.G.G.G.K.K.G.G.G.G.G.G.G.G.K.K.Y.Z.Y.E.! $ + , 2 r b D H H D B L b z f H | =.K._. X&XiXhXY.a.Z.^.^._._.^.^.^.^.",
"G.G.G.G.G.G.G.G.G.G.K.K.K.K.K.K.G.G.G.G.G.K.K.K.Y.G.E.^.R 2 $ - , r B ! ] ! H m p 8 e 8 m ] +.Z.oX1XG.9XaX[.Z.Y._._.[._.^.^.^.^.",
"G.G.G.G.G.G.G.G.G.K.K.K.K.K.K.K.K.K.K.K.K.K.K.K.Y.Y.E.G.b p 8 2 , p D ^ | ^ D b 8 2 e , f D z ^  X;XZ.wXhX<XG.^.[.[._._.^.^.^.E.",
"G.G.G.G.G.G.G.G.K.K.K.K.K.K.K.K.K.K.K.K.K.K.Y.Y.Y.E.K.0.e z B H e z H ^ ^ L B m p r r - , 8 - e 0.a.k.oXaX4XN. X[._._.^.^.^.E.E.",
"G.G.G.G.G.G.G.G.G.K.K.K.K.K.K.K.K.K.K.K.K.Y.Y.Y.K.Y.Y.] 2 r R X.f B ! ! H m f p 2 - $ + + + - 8 H 5.! | p.Z.x.[._._.^.^.^.^.E.E.",
"G.G.G.G.G.G.G.G.G.G.K.K.K.K.K.K.K.K.K.K.K.Y.Y.Y.Y.Y.E.D - + B ] b H ] ^ D p 8 2 2 , 2 p 8 + - , X.$Xz 8 , | Z.^.^.^.^.^.^.E.E.E.",
"K.K.K.G.G.G.K.K.K.K.Y.Y.Y.Y.Y.Y.K.K.K.K.Y.Y.Y.Y.^.Y.E.B   + B D B R | X.L f e e p B m D b +   e r.2.- e ^ $.k.[._.^.^.^.^.E.E.E.",
"K.K.K.G.G.K.K.K.K.K.Y.Y.Y.Y.Y.Y.Y.Y.Y.Y.Y.Y.Y.Y.E._.E.| 2 r m B p m ! $.| B r 8 B >.k.k.] 8 8 m 5.v.B r r 2._.Y._.^.^.^.^.^.^.^.",
"K.K.K.K.K.K.K.K.K.Y.Y.Y.Y.Y.Y.Y.Y.Y.Y.Y.Y.Y.E.E.E.^.^.Z.B e 8 R e p D X.$.R f e 2 D =.0.^ e r m ] ;Xk.0.p.K.E. X_.^.^.^.^.^.^.E.",
"K.K.K.K.K.K.K.K.Y.Y.E.E.Y.Y.E.E.Y.Y.Y.Y.E.E.E.E.E.^.^.oXX.p , R f f b H ! L m p p r B | D e z m L $X1XsX<X_.[._._._.^.^.^.^.^.E.",
"K.K.K.K.K.K.Y.Y.E.E.E.E.E.E.E.E.E.E.E.E.E.E.^.^.^._.^._.5.] B b m b p p z m b f p e f m 8 , z b B  XgXhX7X_. X_._._.^.^.^.^.^.^.",
"Y.Y.Y.Y.Y.Y.Y.Y.E.E.^.^.^.E.E.^.E.E.E.E.^.^.^.^._._._._.r.+.] m D m p 8 8 r p r r p f p , r D f f Y.sXiX9X_._.oX_._.^.^.^.^.^.^.",
"Y.Y.Y.Y.Y.E.E.E.^.^.^.^.^.^.^.^.^.^.^.^.^.^.^._._.^._. X>.| | H R B f r 8 , , 8 f r 2 - + - e $ D 5.yXsX X^. XE._._.^.^.^.^.^.^.",
"Y.Y.Y.E.E.E.E.E.^.^.^.^.^.^.^.^.^.^.^.^.^.^._._._. X^.E.| +.+.p X.H b b r $ + , f 2 + - +   - 8 $.E.sX4XY.oX_._._._._.^.^.^.^.^.",
"E.E.E.E.E.^.^.^.[.[._.^.^.^._._.^._._._._._._._.^.oX_.v.$.+.D b ! H z p r , + - f 8 2 - $ - 8 b H p.7X_. X_.Y.oX_._.^.^.^.^.^.E.",
"E.^.^.^.^.^.^.^.E.^._. X X[._.^.^.^._._._.[. XoXoXoXoX5.$.+.B p R D p 8 2 , - , f     $ , , r ! k.>.Y.K. XoX[.^._._.^.^.^.^.^.E.",
"^.^.^._._._._.[. X X[.[.[.[.[.[. X X X[._._._._.[.[.$XX.=.X.m p r r r r 8 + $ r + 8 8   2 | 0.r.X.b v.oX[.^. X_._._.^.^.^.^.^.E.",
"_._._.^.^._.[. X_.[.[. X X[.[._.[.[. X XoXoXoXoX XoXoXX.$.^ B m r , , p r + + f ,   + f m B +.E.2.D x. X[._.oX_._._.^.^.^.^.^.^.",
"_._.[._._.^._.[. X X X[.[. X X X[.[.[.[.[.[.[. X XoXN.+.$.L D H ^ b , , 8 , , p + $ 2 - - r m ] X.| Z.[.[. X X^._._.^.^.^.^.^.^.",
"_.[. X X[.[. X XoXoXoXoX X[._.^.p.r.2.=.+.+.$.>.0.r.| +.=.R D B | ^ m , + $ 2 r - - - + $ 2 2 e , +.[.$X X[.^._._._.^.^.^.^.^.^.",
" X[.[.^.Y.Y.^.[. X X[.Y.k.X.m e r r e 8 8 e p z m H R +.=.R B b ! | ! z , + - e , $ $ $ , e 8 e D a.oX X[. X_._._.^.^.^.^.^.^.^.",
"| ! B p 2 2 e f R H B z p r r r r r r r r p p f D H $.$.+.D z m =.| L B z , + , f e r r r p p m X.Z.oX[._.[._.[._.^.^.^.^.^.^.^.",
"B f 8 - - , 2 2 2 8 8 8 2 8 r p f f f f r e r f H ! ] +.+.B z ^ +.R D z z z 2 $ , 8 f b b z ! ^ 2.Y._.[.$X[._._._._._.^.^.^.^.^.",
"p r 8 8 8 e 8 2 2 8 2 , , , 2 e f f p r 8 8 r z D R ^ +.X.m z ^ +.! D z f p 2 - $ - e p f b | r.=.^.$X X[._.[.[._._._.^.^.^.^.^.",
"e e r p p r 8 2 2 , - - $ - - , e r r e 2 2 p m H L ! $.$.B b | X.! D p e r 8 8 + + 2 8 , 2 b X.p.[.&XoX X_.[._._._._._.^.^.^.^.",
"p f f f p e , - - $ $ $ $ $ - , , 2 2 8 8 e f B D H ! $.=.D b X.$.^ H r 8 z m H 5.=.$.] H D L >._. X_.oX&X[._._._._._._._._._._.",
"z z f p 8 2 - - - $ $ - - $ - , 2 , - 2 8 p z B m B L +.=.D z | =.^ D p f L X.5.x.Y.-XiXhXyX4XwX4X;X_.[.oX[. X[.[.[.[._._._._._.",
"f p r 8 2 2 2 2 , , - - $ + - 2 p 8 - - 2 e z m m B L X.$.D b | | D b z H X.5.x.G.^.-XyXhX<X1XwXwXiX1XoX_.[.oX[.[.[.[.[.[.[._._.",
"r e e e e 8 8 8 2 , - $ +   , r z e , - - 2 p z B D L ] X.D m | R z f B ] >.2.a.x.K.&XiXsXp.k.Y.$X9XyX4X$X X$X_.[.[.[.[.[.[.[.[.",
"e e r p p r e 8 2 - $ +     2 f f r 2 , , , e f m D H ! ^ B b | L p f R =.5.>.5.x.K.&XyX4Xz D $.a.^.4XiX4X$X$X[.[.[.[.[.[.[.[.[.",
"+ + + + + + + +                                 + + + + + + + + + + + $ $ $ $ - , 2 2 2 - $ + + - - , 2 2 2 2 , , , , , , , , , ",
"                                                                                    $ +                                         ",
"                                                                                                                                ",
"                                                                                                                                ",
"                                                                                                                                ",
"                                                                                                +                               ",
"                                                                                                                                ",
"                                                                                                                                "
};

