/* XPM */
static char *_85ce88f217b4246dc64ec51d26e56edJ7kGsELJwsG29eH1[] = {
/* columns rows colors chars-per-pixel */
"64 64 6 1 ",
"  c None",
". c black",
"X c #464646",
"o c #ED1C24",
"O c #9C5A3C",
"+ c #B4B4B4",
/* pixels */
"                                                                ",
"                                                                ",
"                                                                ",
"                                                                ",
"                                                                ",
"                                                                ",
"                                                                ",
"                                                                ",
"                                                                ",
"                                                                ",
"                                                                ",
"                                                                ",
"                                                                ",
"                                                                ",
"                                                                ",
"                           ooooooooo                            ",
"                        ooooooooooooooo                         ",
"                      oooooooooXXXooooooo                       ",
"                    ooooooooXXXX++Xoooooooo                     ",
"                   ooooooooXX+++o+XXoooooooo                    ",
"                  ooooooooXX+ooooo+XXoooooooo                   ",
"                 oooooooooX+ooooooo+Xooooooooo                  ",
"                ooooooooooX+ooooooo+Xoooooooooo                 ",
"               oooooooooooXX+ooooooo+Xoooooooooo                ",
"               ooooooooooooXX+++oooooooooooooooo                ",
"              ooooooooooooooXXX+ooooooooooooooooo               ",
"             ooooooooooooooooooX+ooooooooooooooooo              ",
"             ooooooooooooooooooX+ooooooooooooooooo              ",
"             ooooooooooooo...........ooooooooooooo              ",
"            ooooooooooooo..OOOOOOOOO...oooooooooooo             ",
"            oooooooooooo..O.........OO..ooooooooooo             ",
"            ooooooooooo.OO..oooooooo..O...ooooooooo             ",
"            oooooooooo.O...ooooooooooo.OO..oooooooo             ",
"            oooooooo..O..oooooooooooooo..O..ooooooo             ",
"            ooooooo..O..oooooooooooooooo..O..oooooo             ",
"            oooooo..O..oooooooooooooooooo..O..ooooo             ",
"            ooooo..O..oooooooooooooooooooo..O.ooooo             ",
"            oooo..O..oooooooooooooooooooooo..O.oooo             ",
"             ooo.O..oooooooooooooooooooooooo..O.oo              ",
"             oo..O..............................oo              ",
"             oo.................................oo              ",
"              ooooooooooooooooooooooooooooooooooo               ",
"               ooooooooooooooooooooooooooooooooo                ",
"               ooooooooooooooooooooooooooooooooo                ",
"                ooooooooooooooooooooooooooooooo                 ",
"                 ooooooooooooooooooooooooooooo                  ",
"                  ooooooooooooooooooooooooooo                   ",
"                   ooooooooooooooooooooooooo                    ",
"                    ooooooooooooooooooooooo                     ",
"                      ooooooooooooooooooo                       ",
"                        ooooooooooooooo                         ",
"                           ooooooooo                            ",
"                                                                ",
"                                                                ",
"                                                                ",
"                                                                ",
"                                                                ",
"                                                                ",
"                                                                ",
"                                                                ",
"                                                                ",
"                                                                ",
"                                                                ",
"                                                                "
};
