/* XPM */
static char *_1dbc8ca8ef74ef5fc76790f158463a1utaemKyBf3mXgkav[] = {
/* columns rows colors chars-per-pixel */
"64 64 7 1 ",
"  c None",
". c black",
"X c #ED1C24",
"o c #9C5A3C",
"O c #FFC20E",
"+ c #E5AA7A",
"@ c #B4B4B4",
/* pixels */
"                                                                ",
"                                                                ",
"                                                                ",
"                                                                ",
"                                                                ",
"                                                                ",
"                                                                ",
"                                                                ",
"                                                                ",
"                                                                ",
"                                                                ",
"                                                                ",
"                                                                ",
"                                                                ",
"                                                                ",
"                                                                ",
"                                                                ",
"                            ........                            ",
"                          ..OOOOOOOO..                          ",
"                         .ooOOOOOOOOOO.                         ",
"                        .OOOOOOOOOOOOOO.                        ",
"                        .XXXXXXXXXXXXXX.                        ",
"                    ..........................                  ",
"                       .++++++++++++++++.                       ",
"                       .++++++++++++++++.                       ",
"                       .++++++++++++++++.                       ",
"                      .++++++++++++++++++.                      ",
"                      .++++++++++++++++++.                      ",
"                      .+++++.++++++.+++++.                      ",
"                       .++++.++++++.++++.                       ",
"                        .+++.++++++.+++.                        ",
"                         ..++++++++++..                         ",
"                           .++++++++.                           ",
"                            ........                            ",
"                           .XXXXXXXX.                           ",
"                          .XXXXXXXXXX.                          ",
"                         .XX.XXXXXX.XX.                         ",
"                        .++.XXXXXXXX.++.                        ",
"                        .++.XXXXXXXX.++.                        ",
"                         ..............                         ",
"                           .OOOOOOOO.                           ",
"                           .OOOOOOOO.                           ",
"                           .OO....OO.                           ",
"                           .OO.@@.OO.                           ",
"                           .++.  .++.                           ",
"                            ..    ..                            ",
"                                                                ",
"                                                                ",
"                                                                ",
"                                                                ",
"                                                                ",
"                                                                ",
"                                                                ",
"                                                                ",
"                                                                ",
"                                                                ",
"                                                                ",
"                                                                ",
"                                                                ",
"                                                                ",
"                                                                ",
"                                                                ",
"                                                                ",
"                                                                "
};
