/* XPM */
static char *bc06c7f387be4acced3e1aa7d702c6378m9Zso6w9G5sXMKv[] = {
/* columns rows colors chars-per-pixel */
"64 64 9 1 ",
"  c None",
". c black",
"X c #464646",
"o c #991C2A",
"O c #ED1C24",
"+ c #9C5A3C",
"@ c #FF7E00",
"# c #E5AA7A",
"$ c #B4B4B4",
/* pixels */
"                                                                ",
"                                                                ",
"                                                                ",
"                                                                ",
"                                                                ",
"                                                                ",
"                                                                ",
"                                                                ",
"                                                                ",
"                                                                ",
"                                                                ",
"                                                                ",
"                                                                ",
"                                                                ",
"                                                                ",
"                                                                ",
"                                                                ",
"                            ........                            ",
"                          ..########..                          ",
"                         .############.                         ",
"                        .##############.                        ",
"                        .##############.                        ",
"                       .################.                       ",
"                       .################.                       ",
"                       .################.                       ",
"                       .################.                       ",
"                      .##################.                      ",
"                      .##################.                      ",
"                      .#####.######.#####.                      ",
"                       .####.######.####.                       ",
"                        .###.######.###.                        ",
"                         ..##########..                         ",
"                           .########.                           ",
"                            ........                            ",
"                           .########.                           ",
"                          .##########.                          ",
"                         .##.#O##O#.##.                         ",
"                        .##.########.##.                        ",
"                        .##.########.##.                        ",
"                         ...###Xo###...                         ",
"                           .##$+o###.                           ",
"                           .###@X###.                           ",
"                           .##.+X.##.                           ",
"                           .##.$$.##.                           ",
"                           .##.  .##.                           ",
"                            ..    ..                            ",
"                                                                ",
"                                                                ",
"                                                                ",
"                                                                ",
"                                                                ",
"                                                                ",
"                                                                ",
"                                                                ",
"                                                                ",
"                                                                ",
"                                                                ",
"                                                                ",
"                                                                ",
"                                                                ",
"                                                                ",
"                                                                ",
"                                                                ",
"                                                                "
};
