/* XPM */
static char *_29df4fd461d4570d55aad2d068733f2mLXEOBjazBWX4lpQ[] = {
/* columns rows colors chars-per-pixel */
"64 64 233 2 ",
"   c #020201",
".  c #0B0102",
"X  c #020A02",
"o  c #04030B",
"O  c #030C0B",
"+  c #0C0B0C",
"@  c #0A0709",
"#  c #130202",
"$  c #1B0302",
"%  c #1C0B05",
"&  c #140B0B",
"*  c #180708",
"=  c #07110B",
"-  c #061304",
";  c #15120B",
":  c #0D0913",
">  c #180D12",
",  c #0D1614",
"<  c #131514",
"1  c #1D1D1B",
"2  c #181818",
"3  c #240101",
"4  c #2C0100",
"5  c #240A01",
"6  c #290909",
"7  c #330201",
"8  c #3A0301",
"9  c #370907",
"0  c #2C1506",
"q  c #261716",
"w  c #381715",
"e  c #2C0B10",
"r  c #19221C",
"t  c #09231A",
"y  c #181C21",
"u  c #2F1E23",
"i  c #1D2321",
"p  c #2C2C2C",
"a  c #252526",
"s  c #362928",
"d  c #2B3432",
"f  c #343534",
"g  c #393937",
"h  c #3D3D3C",
"j  c #373737",
"k  c #2E312C",
"l  c #2A261B",
"z  c #490C07",
"x  c #550A02",
"c  c #560605",
"v  c #471703",
"b  c #591807",
"n  c #551417",
"m  c #4D1012",
"M  c #6B0A06",
"N  c #7A0905",
"B  c #621305",
"V  c #791603",
"C  c #661915",
"Z  c #751816",
"A  c #512413",
"S  c #742200",
"D  c #68251A",
"F  c #762A15",
"G  c #6E1B23",
"H  c #721929",
"J  c #5D2826",
"K  c #453438",
"L  c #52332E",
"P  c #6A2926",
"I  c #7A2728",
"U  c #673538",
"Y  c #6A3327",
"T  c #37483D",
"R  c #454539",
"E  c #5E403E",
"W  c #71533A",
"Q  c #393648",
"!  c #4D3E43",
"~  c #703B41",
"^  c #3C4443",
"/  c #444443",
"(  c #4A4A46",
")  c #4C4C4C",
"_  c #4A4647",
"`  c #524A4C",
"'  c #4C524D",
"]  c #52534E",
"[  c #495752",
"{  c #545453",
"}  c #595956",
"|  c #5C5C5B",
" . c #5A5658",
".. c #5A4F54",
"X. c #62414C",
"o. c #4D6458",
"O. c #58645C",
"+. c #50634D",
"@. c #61625F",
"#. c #636250",
"$. c #5C5E61",
"%. c #695D65",
"&. c #5A6865",
"*. c #5B7876",
"=. c #646462",
"-. c #686966",
";. c #6C6C6B",
":. c #666767",
">. c #6C736D",
",. c #66716C",
"<. c #72726E",
"1. c #787E6A",
"2. c #6C6D72",
"3. c #747473",
"4. c #7A7A76",
"5. c #7C7C7B",
"6. c #777778",
"7. c #736F6F",
"8. c #881305",
"9. c #961708",
"0. c #8B1919",
"q. c #971513",
"w. c #B51912",
"e. c #962706",
"r. c #983018",
"t. c #8B2318",
"y. c #B22316",
"u. c #AB2F13",
"i. c #961C24",
"p. c #AA1823",
"a. c #872222",
"s. c #982E2E",
"d. c #B5322E",
"f. c #C80915",
"g. c #C51A10",
"h. c #C42B0D",
"j. c #C11722",
"k. c #CA3326",
"l. c #A94633",
"z. c #B05032",
"x. c #9E5232",
"c. c #CA492F",
"v. c #E74D39",
"b. c #993442",
"n. c #C73846",
"m. c #845947",
"M. c #B1534F",
"N. c #906753",
"B. c #827676",
"V. c #856771",
"C. c #AD755F",
"Z. c #CE564D",
"A. c #EE5D45",
"S. c #EB4843",
"D. c #D97360",
"F. c #E56A60",
"G. c #79817A",
"H. c #83855D",
"J. c #82827F",
"K. c #94957C",
"L. c #A6A174",
"P. c #C68172",
"I. c #7E7F81",
"U. c #6B7C83",
"Y. c #857E83",
"T. c #D37688",
"R. c #7C8782",
"E. c #848482",
"W. c #8C8C8B",
"Q. c #878586",
"!. c #97878B",
"~. c #87918C",
"^. c #92918E",
"/. c #8A9896",
"(. c #949493",
"). c #999997",
"_. c #9C9C9B",
"`. c #989696",
"'. c #988D91",
"]. c #A39C9D",
"[. c #9DA29D",
"{. c #96A19A",
"}. c #A2A19E",
"|. c #A5A792",
" X c #B7AB9C",
".X c #9D9EA2",
"XX c #A19AA1",
"oX c #9CA8A3",
"OX c #9CB4A6",
"+X c #A4A4A3",
"@X c #A9AAA6",
"#X c #ACACAB",
"$X c #A7A8A6",
"%X c #B3ABAC",
"&X c #B7A7A8",
"*X c #ADB1AC",
"=X c #B1B1AE",
"-X c #B4B4B3",
";X c #BCBBBB",
":X c #B8B6B6",
">X c #AEB1B2",
",X c #F6A792",
"<X c #CBB2B2",
"1X c #E6BDA8",
"2X c #E7B3B0",
"3X c #B4C2BA",
"4X c #D6CAB1",
"5X c #E9C8AB",
"6X c #C2C2C2",
"7X c #CCCCCC",
"8X c #C9C9C7",
"9X c #D3D3D3",
"0X c #DADADA",
"qX c #E1E1DF",
"wX c #E4E4E4",
"eX c #ECECEC",
"rX c #E8E8E6",
"tX c #F2F2EE",
"yX c #F6F6F6",
"uX c #F4F4F4",
"iX c #FAFAF5",
"pX c #FBFBFB",
"aX c #F9F9F9",
"sX c #FDFDFD",
"dX c gray99",
"fX c #FEFEFE",
"gX c None",
"hX c #FEFEFF",
"jX c #FDFDFF",
"kX c #FFFFFF",
"lX c #F5FAFA",
"zX c #F1F5F4",
"xX c #E2CBC5",
/* pixels */
"gXgXgXgXgXgXgXgXgXgXgXgXgXgXgXgXgXgXgXgXgXgXgXgXgXgXgXgXgXgXgXgXgXgXgXgXgXgXgXgXgXgXgXgXgXgXgXgXgXgXgXgXgXgXgXgXgXgXgXgXgXgXgXgX",
"gXgXgXgXgXgXgXgXgXgXgXgXgXgXgXgXgXgXgXgXgXgXgXgXgXgXgXgXgXgXgXgXgXgXgXgXgXgXgXgXgXgXgXgXgXgXgXgXgXgXgXgXgXgXgXgXgXgXgXgXgXgXgXgX",
"gXgXgXgXgXgXgXgXgXgXgXgXgXgXgXgXgXgXgXgXgXgXgXgXgXgXgXgXgXgXgXgXgXgXgXgXgXgXgXgXgXgXgXgXgXgXgXgXgXgXgXgXgXgXgXgXgXgXgXgXgXgXgXgX",
"gXgXgXgXgXgXgXgXgXgXgXgXgXgXgXgXgXgXgXgXgXgXgXgXgXgXgXgXgXgXgXgXgXgXgXgXgXgXgXgXgXgXgXgXgXgXgXgXgXgXgXgXgXgXgXgXgXgXgXgXgXgXgXgX",
"gXgXgXgXgXgXgXgXgXgXgXgXgXgXgXgXgXgXgXgXgXgXgXgXgXgXgXgXgXgXgXgXgXgXgXgXgXgXgXgXgXgXgXgXgXgXgXgXgXgXgXgXgXgXgXgXgXgXgXgXgXgXgXgX",
"gXgXgXgXgXgXgXgXgXgXgXgXgXgXgXgXgXgXgXgXgXgXgXgXgXgXgXgXgXgXgXgXgXgXgXgXgXgXgXgXgXgXgXgXgXgXgXgXgXgXgXgXgXgXgXgXgXgXgXgXgXgXgXgX",
"gXgXgXgXgXgXgXgXgXgXgXgXgXgXgXgXgXgXgXgXgXgXgXgXgXgXgXgXgXgXgXgXgXgXgXgXgXgXgXgXgXgXgXgXgXgXgXgXgXgXgXgXgXgXgXgXgXgXgXgXgXgXgXgX",
"gXgXgXgXgXgXgXgXgXgXgXgXgXgXgXgXgXgXgXgXgXgXgXgXgXgXgXgXgXgXgXgXgXgXgXgXgXgXgXgXgXgXgXgXgXgXgXgXgXgXgXgXgXgXgXgXgXgXgXgXgXgXgXgX",
"gXgXgXgXgXgXgXgXgXgXgXgXgXgXgXgXpXpXgXgXgXgXgXgXpXgXpXgXgXgXpXgXgXgXgXpXgXgXpXgXgXgXgXdXgXgXgXgXgXgXgXgXgXgXgXgXgXgXgXgXgXgXgXgX",
"gXgXgXgXgXgXgXgXgXgXgXgXgXgXgXgXgXgXgXuXyXgXgXpXgXgXpXgXpXpXgXgXgXgXgXgXgXgXpXgXgXgXaXgXgXgXaXgXgXgXgXgXgXgXgXgXgXgXgXgXgXgXgXgX",
"gXgXgXgXgXgXgXgXgXgXgXgXgXgXgXgXgXyXpXgXgXyXuXgXyXgXgXpXpXgXgXpXgXgXpXpXpXuXpXgXdXgXgXpXgXdXdXyXgXgXgXgXgXgXgXgXgXgXgXgXgXgXgXgX",
"gXgXgXgXgXgXgXgXgXgXgXgXgXgXgXgXgXgXgXpXgXgXgXgXgXgXgXgXgXeXeX9XqXqXqXrXeXeXtXrXgXpXgXuXgXyXgXgXgXgXgXgXgXgXgXgXgXgXgXgXgXgXgXgX",
"gXgXgXgXgXgXgXgXgXgXgXgXpXgXgXgXgXgXgXgXpXrX8X-X_.(.#X-X#X6.=.=.} | { @.6.(.#X).3.`.(.=.$X-X7XeXgXgXgXpXgXgXgXgXgXgXgXgXgXgXgXgX",
"gXgXgXgXgXgXgXgXpXgXgXgXgXgXgXpXrX7X:X#XW.} Q _ / ) } _ _ h _ } ] { ' @.4.).3X@X).3.;.-X;.^.+X;XyXgXgXgXgXgXgXgXgXgXgXgXgXgXgXgX",
"gXgXgXgXgXgXgXgXpXgXgXgXgXuX9X-X-X).| a < p { =.5.+X$X$X-X6X#X#X-X=X}.+XJ.@.=.R _ 5.).| ).#X6X#X7XrXgXgXgXgXgXgXgXgXgXgXgXgXgXgX",
"gXgXgXgXgXgXgXgXgXgXgXgXuX7XW.{ =.h f | (.#X-X-X:X_.=.;.W.W.5.#X5.<.@.>.] h =.=.| _ ) `.=.+X#X-X$X9XpXgXgXpXgXgXgXgXgXgXgXgXgXgX",
"gXgXgXgXgXgXgXgXgXgXgXwX-XW.a / ^.6.,.' ; k 3.>X-X#X).#X<.E.$X5.`.` 2.+   @ o o ;.5.`.W.}.$X=X%XW.(.rXgXgXeXgXgXgXgXgXgXgXgXgXgX",
"gXgXgXgXgXgXgXgXyXgXgX-X).) { (.*X^.! n Z c 4 4.+X;.;.| W.| =.#XR./.+ $ 3 3 . O & Q.W.+X+X-X:X-X=.p =.gXgXgXgXgXgXgXgXgXgXgXgXgX",
"gXgXgXgXgXgXgXgXgXyXeX-X/ } | / E.s m p.f.w.c l -X5.E.).( -.=._.{.} . C i.0.m % # h }.@X^.[.#X#X6X+X;.pXyXpXgXyXgXgXgXgXgXgXgXgX",
"gXgXgXgXgXgXgXpXeXgXuXQ.;.+X| 1 < . m p.f.j.c X -.| =.r <.=.] E.-X# m q.f.f.0.4 . . }.@X`.-X@X(.E.E.-X-XgXgXgXpXgXgXgXgXgXgXgXgX",
"pXgXgXgXgXgXgXgXgXpX8X) W.;.Y.5.a   w I N N 3 X =.=.1 ^._.g 5.<.7.. 9 i.f.f.0.7 > > ` Q.} g ' #X#X$X#X#X7XgXeXgXgXgXgXgXgXgXgXgX",
"gXgXgXpXpXgXgXgXyXrX=.p p h 5.| 2.Q   # 5 $ ; *.+X_ | -X_.k ) W.,.= . n 0.0.m % &   + < _ W.=.p j h h `.6XuXgXuXgXgXgXgXgXgXgXgX",
"gXgXgXpXgXgXgXyX0X-Xa 6.| ;.=.5.).W.Q.).,.O.Q.-X=X/ E.@X-X`.+X=X+X^ 2   $ $ . o   p #X5.6.+X+X_.=.< { p ;.$XwXgXgXgXgXgXgXgXgXgX",
"pXgXgXgXgXgXuX0X`.) | p + { #X=.1.'.%. .[ o.{ K g ; W.6X@X#X_.g %.XX:.y   O   : 1 5.#X-X$X5.q     + p 5.f W._ 6XgXgXgXgXgXgXgXgX",
"pXgXpXgXgXpXgX#X1._ 6. .. # < U.3.J.@X*XOXG.i ) ..; @X6X$X#X-X).7.o d R.(.Y.).,.!.;XE.-XB.      @ ] 6._ (.a W.{ 9XgXpXgXpXgXgXgX",
"gXgXgXgXgXgXgX#X] { Q.| % 6 % X f | 6.5.oXi $X! K '.;X+X@.5.^.$X{.T @Xp !.&X@X_.:X,.$XG.+ o +   1 ;._.@.3.-.| h -XeXgXgXgXgXgXgX",
"gXgXgXgXgXgXgX+X-.'.p R.$ C 7 .     i $.Y._.=Xp ].%X;X(.i a o _ OXr <X&X` =X-XG.=.~.[ , O       E.| #XQ.} (.=.R _.7XgXgXgXgXgXgX",
"gXgXgXgXgXgXgX_.| %X[ [ # H C 7   + o : : ! | g a / j | I.$X`.2.6X_ <X+X~.o.r r % ;         @ _ #X| -X).} ^._.| ).;XgXgXgXgXgXgX",
"gXgXgXgXgXdXgX#X) Y.$XO.# G Z x $ %         @     + 2 2   ^ ~.[ _ Q.;.&.t     # n 4 %   @   @ @X-.`.:X+X] E.#X| ).6XgXgXgXgXgXgX",
"gXgXgXgXgXgXgX9XI.O.>.#X. 9 B 8.D 4 . O   +   -           <   O + X X   & 3 4 H C 7 6 .   + _.#X} -X+X-X( Q.=X{ $X9XgXgXgXgXgXgX",
"gXgXgXpXgXgXgXuX-XO.' !.    D y.c.x 5   o   @     # . q .   .   # q - # 8 G I 4 C 7 0     $.-X5.W.(._.`.;.Q.-X4.;XuXgXgXgXgXgXgX",
"gXgXgXyXgXpXgXgX0X&.G.V., - 4 S.v.8.v   @ * . & q . q w e $ . % n m $ P M s.A   8 A . X ^ #X(.;X).5.:X) @XJ.#X-X0XgXgXgXpXgXgXgX",
"gXgXgXgXgXgXgXgXlX5.B.=.y o 7 s.c.u.c x 5 q b 5 0 8 v v 9 e $ m S 9.x Z 8 n   q Z 9   , $X3.].[.=.-XE.5.#XJ.@X0XgXgXgXgXgXgXgXgX",
"gXgXgXgXgXgXgXgXjX^.K.#.p ; 7 B 8.y.i.V x M y.x M 0.9.N M M r.V u.c.n.b.- $ # i.m #   3.:X .%XG.=X+X#X-X5.(.pXuXgXgXgXgXgXgXgXgX",
"gXgXgXgXgXgXgXgXzX|.4XL.K.1.#.s.a.8.s.c.e.r.k.t.Z.9.w.k.e.y.g.e.F.D H n ; I b N $ * / >X(.Q.@X{.;X+X=X=X$X9XgXgXgXgXgXgXgXgXgXgX",
"gXgXgXgXgXgXgXgXjX X5XL.H.R L D a.b 9 M.l.N.x.F.z.8.A.r.S F.d.Y M.X   # C n.x 5 & 2 Q..X..%X_.oX=X5.$X=X9XpXgXyXgXgXgXgXgXgXgXgX",
"gXgXgXgXgXgXgXgXdX X1XN.W q w n V C.% Y J < 0 C F q.Z.v b P 5 X 0 J 0 8 s.b 3 > i ,.6.3.Q.-X;.$X@X5.#X#XtXdXyXgXgXgXgXgXgXgXgXgX",
"gXgXgXgXgXgXgXgXgX<X5XW L q w 7 c Z.z N.~ 6 m.7 w T.n A F l.I z c Z.b v Z   e Q &.&.#X| #X@X5.=X+X-.#X8XtXdXgXpXgXgXgXgXgXgXgXgX",
"gXgXgXgXgXgXgXgXgXxX1XY e q s w C d.a.,XZ.M.,XP C.2Xz P.z.v.k.k.9.i.z 5 4 - X.&.-.#X} +X[.E.).%X3.(.=X9XgXgXyXgXgXgXgXgXgXgXgXgX",
"gXgXgXgXgXgXgXgXlXxX1XY $ . # $ 6 9.V c.y.Z.D.s.A.z.t.Z.V u.y.9.S 3 9 o > o.E +.-X-.E.@X3X,.@X_.=.#X0XgXdXiXgXgXgXgXgXgXgXgXgXgX",
"gXgXgXgXgXgXgXgXiX<X2XU . =   . *   z a.B r.d.V c.e.w.q.v Z i.7 u $ .   } 4._ @XE.;._.).J.`.+X{ #X9XgXgXgXgXgXgXgXgXgXgXgXgXgXgX",
"gXgXgXgXgXgXgXgXtX<X<Xs &     . @ X 3 z 7 b Z x V b 0.M . 4 c # # . @ @.4.1 =XW.;.}.-.#X@.=X;.W.wXyXgXgXgXgXgXgXgXgXgXgXgXgXgXgX",
"gXgXgXgXgXgXgXgXdX&X!.K         o O   . . 5 3 $ 8 5 m 9   & 3   >   { E./ +X].4.+X=.;X;.@XW.=.yXgXgXgXgXgXgXgXgXgXgXgXgXgXgXgXgX",
"gXgXgXgXgXgXgXgXpX4.%. .    o   o O X   O X   : * @ 6 * X X   O   ;.W.r [.6XJ.+X;.$X<.^.@XuXgXdXgXpXpXgXgXgXgXgXgXgXgXgXgXgXgXgX",
"gXgXgXgXgXgXgXgXjX(. .6.a       @             o .   . * = X   < G.E.a _.*X| 5.;.).^.^.0XeXgXpXiXgXgXgXgXgXgXgXgXgXgXgXgXgXgXgXgX",
"gXgXgXgXgXgXgXgXgXW./ W.j } < @ . .   X .   O .     . .   = f B.d ( ).:.{ oX5.E.@X:XrXtXgXpXgXgXgXgXgXgXgXgXgXgXgXgXgXgXgXgXgXgX",
"gXgXgXgXgXgXgXgXtX6Xa oXQ.^.).) , * @   #   X         > ..3.[ K / =.| (.6XW.W.0XuXgXgXgXdXgXdXuXpXgXgXgXgXgXgXgXgXgXgXgXgXgXgXgX",
"gXgXgXgXgXgXgXgXpX$XW.p `.}.] >./.Y.$.d K j T ( | R.oX].%X3XOX'.) _.#X#X-XlXgXlXgXtXgXgXiXyXgXgXpXgXgXgXgXgXgXpXgXgXgXgXgXgXgXgX",
"gXgXgXgXgXgXgXgXgX-X#XW._ 3.:X_.;./ ( 5._.@X+X)._.E.=.=.6.5.| j ).$X;X0XpXgXgXpXgXgXgXgXgXgXgXgXgXgXgXgXgXgXgXgXgXgXgXgXgXgXgXgX",
"gXgXgXgXgXgXgXgXgX0X+X_.#XQ.5.-X*X@X^.E.E.@.( | 5._.-X).;.=.Q.-X:X9XyXgXgXpXgXgXgXgXgXgXgXgXgXgXgXgXgXgXgXgXgXgXgXgXgXgXgXgXgXgX",
"gXgXgXgXgXgXgXgXgXgX-X) { 6.;.| ' =.W.@X@X}.@X:X#X-X-X-X:X8XwXuXuXgXgXgXgXpXgXgXgXgXgXgXgXgXgXgXgXgXgXgXgXgXgXgXgXgXgXgXgXgXgXgX",
"gXgXgXgXgXgXgXgXgXgXgXeX+X;.{ h ;.-.5.W.E.(.=X=X-X7XeXgXgXgXgXgXgXgXpXyXgXgXgXgXgXgXgXgXgXgXgXgXgXgXgXgXgXgXgXgXgXgXgXgXgXgXgXgX",
"gXgXgXgXgXgXgXgXgXgXpXpXgXpX0X6X+X@X`.(.-X7X0XiXgXgXpXpXpXgXgXgXpXgXgXgXgXgXgXgXgXgXgXgXgXgXgXgXgXgXgXgXgXgXgXgXgXgXgXgXgXgXgXgX",
"gXgXgXgXgXgXgXgXgXgXgXpXgXpXyXgXgXgXgXgXgXgXgXgXpXgXgXgXgXpXpXgXgXgXgXgXgXgXgXgXgXgXgXgXgXgXgXgXgXgXgXgXgXgXgXgXgXgXgXgXgXgXgXgX",
"gXgXgXgXgXgXgXgXgXgXgXgXgXgXgXyXgXyXgXgXyXpXgXyXgXpXyXpXgXgXgXgXgXgXpXpXgXgXgXgXgXgXgXgXgXgXgXgXgXgXgXgXgXgXgXgXgXgXgXgXgXgXgXgX",
"gXgXgXgXgXgXgXgXgXgXgXpXgXgXgXgXpXgXpXgXgXgXpXgXgXgXgXgXgXpXpXgXpXgXgXgXgXgXgXgXgXgXgXgXgXgXgXgXgXgXgXgXgXgXgXgXgXgXgXgXgXgXgXgX",
"gXgXgXgXgXgXgXgXgXgXgXgXgXgXgXgXgXgXgXgXgXgXgXgXgXgXgXgXgXgXgXgXgXgXgXgXgXgXgXgXgXgXgXgXgXgXgXgXgXgXgXgXgXgXgXgXgXgXgXgXgXgXgXgX",
"gXgXgXgXgXgXgXgXgXgXgXgXgXgXgXgXgXgXgXgXgXgXgXgXgXgXgXgXgXgXgXgXgXgXgXgXgXgXgXgXgXgXgXgXgXgXgXgXgXgXgXgXgXgXgXgXgXgXgXgXgXgXgXgX",
"gXgXgXgXgXgXgXgXgXgXgXgXgXgXgXgXgXgXgXgXgXgXgXgXgXgXgXgXgXgXgXgXgXgXgXgXgXgXgXgXgXgXgXgXgXgXgXgXgXgXgXgXgXgXgXgXgXgXgXgXgXgXgXgX",
"gXgXgXgXgXgXgXgXgXgXgXgXgXgXgXgXgXgXgXgXgXgXgXgXgXgXgXgXgXgXgXgXgXgXgXgXgXgXgXgXgXgXgXgXgXgXgXgXgXgXgXgXgXgXgXgXgXgXgXgXgXgXgXgX",
"gXgXgXgXgXgXgXgXgXgXgXgXgXgXgXgXgXgXgXgXgXgXgXgXgXgXgXgXgXgXgXgXgXgXgXgXgXgXgXgXgXgXgXgXgXgXgXgXgXgXgXgXgXgXgXgXgXgXgXgXgXgXgXgX",
"gXgXgXgXgXgXgXgXgXgXgXgXgXgXgXgXgXgXgXgXgXgXgXgXgXgXgXgXgXgXgXgXgXgXgXgXgXgXgXgXgXgXgXgXgXgXgXgXgXgXgXgXgXgXgXgXgXgXgXgXgXgXgXgX",
"gXgXgXgXgXgXgXgXgXgXgXgXgXgXgXgXgXgXgXgXgXgXgXgXgXgXgXgXgXgXgXgXgXgXgXgXgXgXgXgXgXgXgXgXgXgXgXgXgXgXgXgXgXgXgXgXgXgXgXgXgXgXgXgX",
"gXgXgXgXgXgXgXgXgXgXgXgXgXgXgXgXgXgXgXgXgXgXgXgXgXgXgXgXgXgXgXgXgXgXgXgXgXgXgXgXgXgXgXgXgXgXgXgXgXgXgXgXgXgXgXgXgXgXgXgXgXgXgXgX"
};