/* XPM */
static char *_0ed657933b64a3bfc101e33e421d862yzeGFHtt3yIEekKK[] = {
/* columns rows colors chars-per-pixel */
"64 64 41 1 ",
"  c #040B1B",
". c #040B1D",
"X c #050C1C",
"o c #060D1D",
"O c #060D1F",
"+ c #070E1E",
"@ c #080F1F",
"# c #070E20",
"$ c #080F21",
"% c #091020",
"& c #0A1121",
"* c #091022",
"= c #0A1123",
"- c #0B1222",
"; c #0C1323",
": c #0B1224",
"> c #0C1325",
", c #0D1424",
"< c #0E1525",
"1 c #0D1426",
"2 c #0E1527",
"3 c #0F1626",
"4 c #0F1628",
"5 c #101727",
"6 c #101729",
"7 c #111828",
"8 c #121929",
"9 c #11182A",
"0 c #131A2A",
"q c #141B2B",
"w c #131A2C",
"e c #141B2D",
"r c #151C2C",
"t c #161D2D",
"y c #171E2E",
"u c #171E30",
"i c #192030",
"p c #1A2131",
"a c #1B2232",
"s c #1C2333",
"d c #202737",
/* pixels */
"%%%%<;@o%%;;;<%%%%%%%%%o%%%;;%%%;%%%%%%<y7<%;;%@%%%%%%%%<<;%%%<5",
"%%%%%%%%%%;;<<%%;;<%%%%%%%%%%%%;<<<;%%%%<%%%%%%%%%%%%%;;<<<;%;<5",
";;;%%%;<%%;;<;%%%;<%@@%<<<%%%%;<<<;%%%%%%%;;;<<5%%%%%;<<%;<<;;<<",
"<;%%<<<<%%%<<;%%%<5<%@%<<;;;%%%;%%%%;<<5%<5<;%;<%%%%;<<<%;<<;%%;",
"<%@%77<@%%;;%%%%;7q7<<<5%;<<<;%%%%%%;<<5%;<;%oo@%%%%;<<<%;<<%%%%",
";%@;77<o%%;;%%%%%<55<%;<%;<55<%o<<;%%%%%%;;%%%%%%%%%%;;;%;<<%%%@",
"%%%;<<<;%%%%%%%%<;%%%%%;;<<<<;%@<<<%%%%%<<%%;<<;%%%%%%%%%;<<;;;<",
"o%<;%@<7%%%%%%%%t7;%%<77<<<<;%%%%%%%%%;;5;@o@%%o%%%%%%%%%;<<<<57",
"%%%%%%@@%%%%%%@o%%;%%%%%<<%%%%%;%;<<;%%%%;%@%<;o%%<5;%<t%%%%%%%%",
"%%%;;<<<;;<<<<;;%%%;<<<<;;;;;%%%;<<<%%;<%@oo<q7;%%;5<%<t%%%%%%%%",
"<<<<<<<<%%;;<;;;%%%%<5<<%%;<<<%%<<<%%%<5<<%@<7<%%%<<<%;5%%%%%%%%",
"<<<<;;%%;;;;;%%%<%o%;<%@%%%;<<;%%;;%%%<<5<;%%;;;<<5<<%%%%%;;<;;;",
";;%%%%%%775<<<<;<%o%;<%@;%%%%;<<@%;;;%%;o@%%@%<q%<<<;;%%;;<<<<<<",
"@@%%%%%%75<<;;%%%%%%<5<<<;%%%;<<o%;<;%%%o%;;@o%7@%%%;<<<;<<<<<<<",
"%%%%%;;<<;%%%%%%%%%;<<<<;;;%%%%%%%;;%%%%<;%<;@@%%%%%%<<;%%;<<<;;",
"<<<<<;;;<;;%;<<5%%;%%%%%%;<<<;%%<<;%%%%<<oo;77<<<<<@@;;@%%%%%%%%",
"@<77%oo%5<<%%;<<4<>:::><;%%%%%<<;@o%<%%<%%:%$%>6%%%%<5<<@%<;<5<%",
"%;<<<;%%<;%%%%%<:%%::><<<<;%%%%;<%%;<%%<%:>>:::<%%@%<<<;%<5<<<<%",
"<;%<<5<;%%%%%%%%$%:::>>:<<;%%%%%7<%;;%%;%><4<:%%%%%%%;%%;77<;;<;",
"<%%%<<<;;%%%%;;;>><<>%%$<<;%%%%%5<%%%;;;<<<<<>:%;;%%%%%%%57<%%;;",
"%;;;%%%%%%%%;;;;<<<<<:%$<;%%%%;<;%%%%;<;64<>::::<<<;;%%;%<<%%%;;",
"%%<;%@@%%%%%%%;;>><<<<>><%%%%;<<@%%%;<<%74:%::::;<<<;%;<%;%%%;<%",
"%%%;<<%%%%%%%%<<>>>:::>><<%%%%<<%;;%;<<@<>:::>:%%;<<%%;<<<%@%<;@",
"%oo%77<@<<%%%<574<>%%$$$<<;%%%%;%<<<<<;o:%%:<<%o@%;;%%%<75%@%<;o",
"%%%%%%%%5<%@%<<<;;;%%%%%%<5%@%<<<<;%%%%%%%%%%<7q<<%%o@%<<%%%%%%%",
"%%%%%%<<<;%%<<<<;;;%%%%%%<<%%<<<;;;;;%%%<;%%;<<7%<<<<%%@%%;<<%%<",
"%%%%;<57%%%%<<;%;%;%%%%%%;;%<57<%%;<<;%%<<<<;;;;%;<5<;%%<<77<%%<",
"%%%%%<57%%;<<<%%;%%%%;;;<<%%<5<<@%;<<<;%<<<<<;%%%%%%%%<7%<57<%;q",
"%;%%%%;<<<777<;%%%%%;;;<7<%;<<;%@%;<<<;%%%<<<<;%;%%%@%;< o%;%%7s",
";<;%%%%;%<<<;%%%%%%;;<<<7<%;<%%%%%;<<;%%%%;<<<;;%;<<;%oo%%%;%@<q",
";<<<%%%;@%%%@@%<;;%;<<<<<%%<%@%<;;;<;;%%%%%;;;;%%%<<<%%%7<<<%oo%",
";<<<<;<<;<<;%<7t%;%;<<<<%%%<%o%<<<;;;%%%;;;;%%%%%%%%%<7q%%;57<%%",
";77;o@%;<<;%%%@@%%%%<5<<<>>:>><<%%%%%%;;%%%%%%%%5<;<;@o%%;<%%%<t",
"o%57<%oo%%%%%%;;%%%;<<<<.#>66>#.<<;%%%%%%%;;%%%;;%%<<%%<%%%%%%;<",
"5%%<<@%<;%%%%;<<;%%%<<<;<<>:::><<<;%%%%%%%;<<;<<%%%;<%%<%%%%<<%o",
"t%@<5%;q<<<;%%%%<;%%;<;%e7>$$:4w%%%%%%%%%%;;%;<<<%%<<%%;%%%%;;%%",
"%o;ii<@%<<<;;%;;<<%;>>%%%%><<>%%%%%%%;;<%%%%%%<<<%%<<%%;%%<%%%<7",
"%o%77;@%%%%%;<<<;%%%%>%%>>::><<<75<<<;;;%%%%%%;<%%%;<%%<%;<%@%<t",
"<<%@oo;5%%%%%;<<;%%%%>%%w4:$%<wu5<<<;;;;<<;%%%<<;%%<<%%<%;;%%%<5",
"o<7<%%;;;%%%%%;;%%%%%;%%#%:<44<<%%%%%%;;<<<;%%<55<;<;@o%;%%%;;%%",
"%%%%%%%%@%%%%%%%###$%><4%%;%%%%%@%%%%<<%@@%%%%;;<;%;<<%@%%%%%%;<",
";;;%%%%%%%%%%%%%<>::%%%%;;;<<<<<;<<;<77<;%%%%%%;%;<<%%%;;<<;%%%<",
"<<<<<%%%%%%%%;%%44<>:%%%%%@%;<;%%;%%%<<%<;;%%%%%@;<<%@%5<<<<%%%%",
"%;<<<;;%%%%%;;%%::::>><<%@o@<<<%;%%%%%%@;%%%%%%%%;<;%%;5<<<<%%%%",
"@%%<<<%%%%%%<<<%%%%%:<<45;%;777<<<;<<<%%%%%%%%%%;%%%%;<<;;;%%%%;",
"@%%;;;;%;%%%<<;%::%%%:>><;%;<5<<<%%;<%%%%%%%%%%%<%%%;<;%%%%%%%%<",
"<<<;;;%%<%@%<<<%<<>:::>>%%%%%%%%;@o%%@o%<<;;%%%%%;;;;%%%%;;%%%%<",
"75<<;%%%<%@%<<<%<<<><<<4%%;%%%%%<%%<<%%;75<<<;%%@<5<%@%;<<<<%%;<",
"o%<;<<<%5;%;;%;7%77%%%@<;;%%%%<<o%<5<<;;%%%%%%;<;;%;<;%%;<<<%;5q",
"@%<%;<<%<;;<<%%;<7<o%%@%;%%%%%%;%%%;<<<%%%%%%%%%;;%;<;%%%;<;%%<7",
"%<<%%<<%%%;55;%%<5% %<%%;%%%%%%%<%@%;<<%;<<<<;%%;;%;<;%%%;;%%%<5",
"%<<%%;<%o@%<5<;%%<% %<<7<;%%%%%%;%%%;;%%;<<<<<;;;;%;<;%%%;<;%%<5",
"%<<%%;<%%%;;;;;%%7<@%%<7<<;;%%<;o%55;%%%%;<<<<<<;;%;<;%%%<<<%%<<",
"%<<%%<<%<<<%%%%@<tq%%@%5<<<;;<<<o<77<@%<;;%;<<55;;%;<;%%%<<<;%;<",
"@%<%;<<%%<<%%%%@<t7%%%%<;%%%;<<<%<77<%%<<<%%%;<5;;%;<;%%%;<<%%%<",
"o%<;<<<%o%%%%<<%%5%o<<;<%%%%%<<<<<<<<<<<5<%%%%<<;;%;<;%%%%<;%@%%",
"%%%%;%%;%<<<;%%%%%%<<%%%%%%%%%%%<<;%;<<<<%%%%;<<<<<<<<;;%@%<%%7d",
"%%%%;%%;;<<;%%%<%%;<<;%%%%%%%%%%<;%%%;;<;%%%;<<;%;<<<<%%%%;;%@<t",
"%%%%;%%%<<;%%%;<;;<<<<;;%%%%%;;;;%%%%%%;%%;<<<<%;<<55<;%%;<%%%;%",
"%%%%;%%%<<;%%%%;<;;%%;;<%%%;;;<;%%%%%%%%%%<575;%<<<<<<;;o<<%;75%",
"%%%%;%;%%;;<<;%%;%%%%%;;%%;<<<;;%%%%%%%%%;<57<;%<%%oo@%;@<<%;75@",
"%%%%;%;;%%;<<<%@%%%%%%%%%%;;%;;;%%%;;%;%<;<<<<;%5<%%%%<<;<;%%;%@",
"%%;%;%%;<;%%<<%%%%;;;;%%%%%%%%%%;;<<<;%%<<%%;;%%5<<<<<<<<%%%%%;5",
"%%;%;%;;5;%%%;;%%;<<<<;%%%%%%%%%;<<<<<;%<<%%%%%%%%%%%%@o<%%<<%7i"
};
