/* XPM */
static char *c9eb7a4c232848fcfb9a27f956cfff49TdT3ACmfXDxar0dR[] = {
/* columns rows colors chars-per-pixel */
"64 64 3 1 ",
"  c #5D2C28",
". c #BF6F4A",
"X c #E69C69",
/* pixels */
"                                                                ",
"                                                                ",
"  ................  ..................................  ......  ",
"  ................  ..................................  ......  ",
"                                                                ",
"                                                                ",
"  ..  XXXXXXXXXXXXXXXXXXXXXXXXXXXXXX..  ..XXXXXXXXXXXXXXXXXXXX  ",
"  ..  XXXXXXXXXXXXXXXXXXXXXXXXXXXXXX..  ..XXXXXXXXXXXXXXXXXXXX  ",
"  ..  ................................  ......................  ",
"  ..  ................................  ......................  ",
"                                                                ",
"                                                                ",
"  XXXXXXXXXXXXXXXXXXXXXXXX..  ..XXXXXXXXXXXXXXXXXXXXXXXX..  ..  ",
"  XXXXXXXXXXXXXXXXXXXXXXXX..  ..XXXXXXXXXXXXXXXXXXXXXXXX..  ..  ",
"  ..........................  ............................  ..  ",
"  ..........................  ............................  ..  ",
"                                                                ",
"                                                                ",
"  XXXXXXXXXX..  ..XXXXXXXXXXXXXXXXXXXXXXXX..  ..XXXXXXXXXXXXXX  ",
"  XXXXXXXXXX..  ..XXXXXXXXXXXXXXXXXXXXXXXX..  ..XXXXXXXXXXXXXX  ",
"  ............  ............................  ................  ",
"  ............  ............................  ................  ",
"                                                                ",
"                                                                ",
"  XXXXXXXXXXXXXXXXXXXXXX....  XXXXXXXXXXXXXXXXXXXXXXXXXX..  ..  ",
"  XXXXXXXXXXXXXXXXXXXXXX....  XXXXXXXXXXXXXXXXXXXXXXXXXX..  ..  ",
"  ..........................  ............................  ..  ",
"  ..........................  ............................  ..  ",
"                                                                ",
"                                                                ",
"  XXXXXX..  ..XXXXXXXXXXXXXXXXXXXXXXXX  ..XXXXXXXXXXXXXXXXXXXX  ",
"  XXXXXX..  ..XXXXXXXXXXXXXXXXXXXXXXXX  ..XXXXXXXXXXXXXXXXXXXX  ",
"  ........  ..........................  ......................  ",
"  ........  ..........................  ......................  ",
"                                                                ",
"                                                                ",
"  XXXXXXXXXXXXXXXX..  ..XXXXXXXXXXXXXXXXXXXXXX  ..............  ",
"  XXXXXXXXXXXXXXXX..  ..XXXXXXXXXXXXXXXXXXXXXX  ..............  ",
"  ..................  ........................  ..XXXXXXXXXXXX  ",
"  ..................  ........................  ..XXXXXXXXXXXX  ",
"                                                                ",
"                                                                ",
"  XX..  ..XXXXXXXXXXXXXXXXXXXXXX  ..XXXXXXXXXXXXXXXXXXXX  ..XX  ",
"  XX..  ..XXXXXXXXXXXXXXXXXXXXXX  ..XXXXXXXXXXXXXXXXXXXX  ..XX  ",
"  ....  ........................  ......................  ....  ",
"  ....  ........................  ......................  ....  ",
"                                                                ",
"                                                                ",
"  XXXXXXXXXXXXXXXXXXXX..  XXXXXXXXXXXXXXXXXX..  XXXXXXXXXXXXXX  ",
"  XXXXXXXXXXXXXXXXXXXX..  XXXXXXXXXXXXXXXXXX..  XXXXXXXXXXXXXX  ",
"  ......................  ....................  ..............  ",
"  ......................  ....................  ..............  ",
"                                                                ",
"                                                                ",
"    XXXXXXXXXXXXXXXXXXXXXX..  XXXXXXXXXXXXXXXXXX..  ..XXXXXXXX  ",
"    XXXXXXXXXXXXXXXXXXXXXX..  XXXXXXXXXXXXXXXXXX..  ..XXXXXXXX  ",
"    ........................  ....................  ..........  ",
"    ........................  ....................  ..........  ",
"                                                                ",
"                                                                ",
"  XXXXXX..  XXXXXXXXXXXXXXXXXXXXXXXX..  ..XXXXXXXXXXXXXXXXXXXX  ",
"  XXXXXX..  XXXXXXXXXXXXXXXXXXXXXXXX..  ..XXXXXXXXXXXXXXXXXXXX  ",
"                                                                ",
"                                                                "
};
