/* XPM */
static char *d1b5e6eee0244a08aba0990a91ebc57e6QI4ASp3XPWEDz9f[] = {
/* columns rows colors chars-per-pixel */
"64 64 155 2 ",
"   c #060606",
".  c #07060A",
"X  c #09070A",
"o  c #0D0D0D",
"O  c #11110F",
"+  c #0E0E11",
"@  c #110F13",
"#  c #0F1013",
"$  c #141414",
"%  c #191917",
"&  c #161519",
"*  c #18161B",
"=  c #17181A",
"-  c #1B1B1C",
";  c #1E1C21",
":  c #211F22",
">  c #1F2024",
",  c #232323",
"<  c #282826",
"1  c #26252B",
"2  c #28272E",
"3  c #2A2A2B",
"4  c #30302E",
"5  c #2D2C33",
"6  c #302F36",
"7  c #333334",
"8  c #393937",
"9  c #333239",
"0  c #38373F",
"q  c #3C3C3C",
"w  c #434343",
"e  c #49474C",
"r  c #4C4C4C",
"t  c #4E4E52",
"y  c #504F54",
"u  c #545454",
"i  c #595957",
"p  c #56555A",
"a  c #58575C",
"s  c #5B5B5B",
"d  c #5D5D62",
"f  c #605F65",
"g  c #646466",
"h  c #65646A",
"j  c #68676D",
"k  c #6A6A6B",
"l  c #6D6C72",
"z  c #706F75",
"x  c #747374",
"c  c #75747A",
"v  c #78777D",
"b  c #7B7B7D",
"n  c #7C7C82",
"m  c #7F8085",
"M  c #828284",
"N  c #85858B",
"B  c #88878C",
"V  c #8C8C8C",
"C  c #8C8C93",
"Z  c #908E93",
"A  c #939393",
"S  c #969698",
"D  c #9B9B9B",
"F  c #9E9EA1",
"G  c #A3A3A3",
"H  c #ABABAA",
"J  c #AEAEB1",
"K  c #B4B4B5",
"L  c #B8B8B6",
"P  c #BBBBBB",
"I  c #C1C1BF",
"U  c #BDBCC1",
"Y  c #C0BFC4",
"T  c #C4C4C4",
"R  c #C6C5CA",
"E  c #C8C7CD",
"W  c #CBCACD",
"Q  c #CDCCD3",
"!  c #D0CFD4",
"~  c #D1CFDA",
"^  c #D3D3D4",
"/  c #D5D4DB",
"(  c #D8D7DC",
")  c #DBDBDC",
"_  c #D8D6E1",
"`  c #DDDCE3",
"'  c #E4E4E5",
"]  c #E8E8E6",
"[  c #E5E5EB",
"{  c #E8E7ED",
"}  c #E6E9ED",
"|  c #ECECEC",
" . c #F1F1EF",
".. c #F0F0EE",
"X. c #E7E9F1",
"o. c #E9E9F1",
"O. c #EAE9F1",
"+. c #EBEAF2",
"@. c #ECEBF0",
"#. c #ECEBF3",
"$. c #EBECF1",
"%. c #EDECF1",
"&. c #ECEDF1",
"*. c #EFEFF1",
"=. c #EDECF2",
"-. c #ECEDF2",
";. c #EEEDF2",
":. c #EDEEF3",
">. c #EFEEF3",
",. c #EDECF4",
"<. c #EEEDF5",
"1. c #EFEEF4",
"2. c #EEEFF4",
"3. c #EFEEF6",
"4. c #EEEEF6",
"5. c #EBEBF2",
"6. c #ECEFF8",
"7. c #F0EFF4",
"8. c #F0EFF5",
"9. c #F0EFF7",
"0. c #F0EFF5",
"q. c #EFF0F5",
"w. c #EEF1F5",
"e. c #EEF1F8",
"r. c #F3F3F1",
"t. c #F1F1F3",
"y. c #F3F3F3",
"u. c gray94",
"i. c #F1F0F6",
"p. c #F2F1F6",
"a. c #F3F3F7",
"s. c #F2F2F4",
"d. c #F5F5F5",
"f. c #F3F3F3",
"g. c #F8F8F6",
"h. c #F1F0F8",
"j. c #F2F1F9",
"k. c #F2F3F8",
"l. c #F2F2FA",
"z. c #F4F3F8",
"x. c #F4F3F9",
"c. c #F5F4F9",
"v. c #F6F5FA",
"b. c #F5F6FB",
"n. c #F6F7FB",
"m. c #F6F6F8",
"M. c #F5F4FC",
"N. c #F5F5FD",
"B. c #F6F6FE",
"V. c #F2F3FA",
"C. c #F7F8FC",
"Z. c #FAF9FE",
"A. c #FAFAFC",
"S. c #FEFFFF",
"D. c #FAFAFA",
/* pixels */
"=.=.=.=.=.=.=.=.=.=.=.=.=.=.=.=.<.<.<.<.9.9.9.=.=.=.q.q.q.q.q.q.q.q.q.q.q.q.<.<.i.i.i.i.9.9.9.9.q.q.q.q.q.<.<.<.q.w.w.w.w.w.<.<.",
"=.=.=.=.=.=.=.=.=.=.=.=.=.=.=.=.<.<.<.<.<.<.=.9.=.=.q.q.q.q.<.q.q.q.q.q.<.<.<.<.i.i.i.i.9.9.9.9.q.q.q.q.q.<.<.<.q.q.w.w.<.<.<.<.",
"=.=.=.=.=.=.=.=.<.=.=.=.=.<.<.=.<.<.<.<.<.<.<.<.<.<.<.q.<.<.<.<.=.q.<.<.<.=.=.<.9.9.i.i.9.9.9.9.q.q.q.q.q.<.<.<.<.<.<.<.<.<.<.<.",
"=.=.=.=.=.=.=.=.=.=.=.=.=.=.=.=.<.<.<.<.<.<.<.<.<.<.<.<.<.<.<.<.<.<.<.<.<.<.<.<.9.9.9.i.9.9.9.9.q.q.q.q.q.<.<.<.<.<.<.<.<.<.<.<.",
"=.=.=.=.=.=.=.=.=.=.=.=.=.=.=.=.<.<.<.<.<.<.=.<.<.<.<.=.<.=.=.<.<.<.<.<.<.<.<.<.9.9.9.9.9.9.9.9.q.q.q.q.q.q.q.q.<.<.<.<.<.<.<.<.",
"=.=.=.=.=.=.=.=.=.=.=.=.=.=.=.=.<.<.<.<.<.<.9.=.<.<.<.<.<.<.q.q.<.<.<.<.<.<.<.<.9.9.9.9.9.9.9.9.q.q.q.q.q.q.q.q.<.q.<.<.<.<.<.<.",
"=.=.=.=.=.=.=.=.=.=.=.=.=.=.=.=.<.<.<.<.<.9.<.=.<.<.<.<.q.q.q.q.q.q.q.q.<.<.<.<.9.9.9.9.9.9.9.9.q.q.q.q.q.<.q.<.q.q.q.q.<.<.<.<.",
"=.=.=.=.=.=.=.=.=.=.=.=.=.=.=.=.<.<.<.<.<.<.9.=.<.<.q.q.q.q.q.q.q.q.q.q.q.q.<.<.9.9.9.9.9.9.9.9.q.q.q.q.q.<.<.<.q.q.q.q.q.q.<.q.",
"<.{ <.=.{ { v.' { h.<.+.9.h.#.+.h.+.9.+.+.<.=.+.{ =.=.i.{ { v.{ { =.i.{ ' { i.=.=.=.z.{ v.{ #.=.=.x.9.{ { =.9.x.| i.} =.q.v.[ M.",
"9.+.=.{ =.Z.W F j j g g h g h v b B N v b n b b n x b n v v x v c z b N n c x l l l l j v c z j l d g l g d d p V T A.C.{ $.M.{ ",
"#.+.i.x.=.R y = $ $ $ , 7 7 r x v N N V A N b B d d M n h d g M B v b M z p t u a r 2 & & 1 ; - $ , & . & ; & ; & w J v.} [ M.h.",
"M.+.{ 9.` l & o $ O O - , , 8 s A P I L I  .g.^ W W ) ' ( / / ( P W { ' K S K ( ( ( T T K F k t r , = , + o & $ # # t } =.h.[ h.",
"<.<.{ =.( 2 @ ; $ % $ $ $ o O - , < i P ) | r.) ( i.i.Z.{ / { ^ T T ^ ' { { | { Z.y.` | =.v.{ =.{ K u $ = & o = - - 1 K { A.{ +.",
"[ M.<.{ / + + X o = $ $ = = $ $ o $ r W |  .^ G K { { | W H ^ T M A H P T (  .d.| { ) { y.y.| d.| y.d.P r o o $ X $ > N { h.<.M.",
"<.M.#.` R - , ; $ & $ + $ & $ + ; o & J w.{ ) { { D...D.d.{ A.' d.| | ' ' | y.{ | y.{ ) | y.d.d.d.' ' y.W g = $ = & 1 C i.{ +.M.",
"{ +.<.{ R ; + $ $ = $ $ $ $ $ - + , $ V ' d.` { y.| { d.y...d.| { { r.d.| | y.| ..y.' P ^ ' d.| | d.d.| y.) b $ $ & - A { V.h.+.",
"<.=.i.{ W - & & $ $ $ $ $ $ $ $ $ o - D ' y.d.y.| d.y.| y.y.| f.y.y.y.y.{ | d...y.d.| ' | y.y.y.D.'  .D.| | R , $   2 C } V.} $.",
"<.=.i.{ W - $ & $ $ $ $ $ $ $ $ = = 3 P y.d.' { d.y.{ | D.d.| y.|  .y.y.{ | y.| y...| y.y.| | y.{ A.| { D.y.! q = $ & B <.5.} q.",
"=.=.q.{ W - & & $ $ $ $ $ $ $ $ o = 7 T y.A.| D.' d.D.y.y.{ ' ' | y.d.d.d.y.y.| y.y.y.y.| y.d.y.{ A.{ |  .y.{ r + , $ N h.X.$.e.",
"=.$.q.{ W - & & $ $ $ $ $ $ $ $ $ = < M S S V D S D A D W D.A.d.d.y.{ { { { | d.D.' ' ' ) ) ' { y.d.d.y.' y.d.c o - ; B +.5.q.$.",
"=.$.q.{ W ; & & $ $ $ $ $ $ $ $ $ o o = - $ $ $ = = o = r A W d.{ f.d.d.d.' ^ ( D g q q 8 7 r k H ^ D.' d.D.{ W q o ; C [ V.q.$.",
"=.$.q.{ W - & & $ $ $ $ $ $ $ $ = = - o $ $ - = $ $ = = $ , k T { A. .K M i 7 7 < < = X $ = $ $ , x { y.y.D.{ y.S - + C +.V.$.q.",
"=.$.q.{ W - $ $ $ $ $ $ $ $ $ $ $ $ $ o o $ $ $ = $ o $ $ X - r P y.^ g = X $ - B D g - $ < , =   i ' D.{ y.d.{ ) u & C <.5.$.q.",
"=.$.q.{ W - $ $ $ $ $ $ $ $ $ $ = = = - $ - $ $ $ = $ $ = $ $ - x ' y.b , $ = $ , 8 , X = $ o , u K d.{ y.y.| y.d.V 5 B <.} q.$.",
"$.+.$.{ Q - @ $ $ $ $ $ $ $ $ $ i S S i 7 - = , , , < , $ $ - $ k | y.' P 3 % $ , , , , , 8 c K { | | | d.y.{ | | ' p m +.V.q.} ",
"$.+.=.{ ! ; $ $ $ $ $ $ $ $ $ $ q A ^ ( W W T P K W K x 7 $ o % c | | A.' q = < D W ^ ^ ^ ^ { d.| y.y.| y.| y.D.f.| h M { } q.s.",
"$.$.=.{ ^ : $ $ $ $ $ $ $ $ $ $ $ 7 s v V T  .d.y. .D 7 = $ O - u ) { y.{ i = < A ' D.y.y.d.d.' y.y.y.y.y.y.| { | | l N h.} q.$.",
"$.=.q.=./ , $ & $ $ $ $ $ $ $ $ = $ $ = 7 k P | | W k $ $ = $ - 3 T y.| { x $ , s G { | ' y.g.| y.| y.y.| y.y.{  .| l b M.$.q.} ",
"=.=.q.=./ , $ & $ $ $ $ $ $ $ $ o $ $ o $ , g T { A 7 o $ $ o   , D { y.y.V X = , e W D.{ y.| y.| y.g.y.' { D.D.d.D.z x <.} q.w.",
"=.=.=.#./ , $ & $ $ $ $ $ $ $ $ $ - $ $ $ X 7 V P u o o $ - , $ , G { | y.T q o $ = F D.D.d.{ y.d.{ y.d.y.d.| ^ ^ y.c n h.} $.s.",
"=.=.=.{ ^ : $ & $ $ $ $ $ $ $ $ $ $ $ = - $ = 8 q = $ , $   $ $ 7 W d.y.y.d.K e = $ i T d.y.y.d.d.{ | d.y.d.' P I { z N h.q.} w.",
"=.=.=.{ ! : $ & $ $ $ $ $ $ $ $ = $ $ $ o o $ $ = o $ $ $ $ = $ 7 ^ ' d.{ d.D.B $ $ $ V | { D.y.| | D.y.( ' | ' ( D.j n +.V.} w.",
"<.$.i.{ Q ; & & $ $ $ $ $ $ $ $ $ $ $ $ $ $ $ $ $ $ $ $ = $ o - $ r D W g.y.' s $ $ o B d.| | | y.^ B P ' D H y.{ D.f n 5.} V.$.",
"<.$.i.{ Q ; & $ $ $ $ $ $ $ $ $ $ $ $ $ $ $ $ $ = = $ $ $ $ $ $ - $ < e c S D < $ $ w T y.' A.d.| H - w G ( ) ^ ' =.t M e.X.5.} ",
"q.$.q.{ Q ; & & $ $ $ $ $ $ $ $ $ $ $ $ $ $ $ $ $ $ $ $ = - $ $ X - X $ < - - $ - M T | ' W ' d.d.^ r O e K ) G T J ; v <.q.q.q.",
"=.$.q.{ Q ; & & $ $ $ $ $ $ $ $ $ $ $ $ $ $ $ $ $ $ $ $ $ $ $ o $ = $ = X $ , $ S { | { d.y.y.] | D.P , o i ( { ^ v * n <.e.$.w.",
"=.$.q.{ W - & $ $ $ $ $ $ $ $ $ $ $ $ $ $ $ $ $ = $ $ $ $ $ - - $ , , k c e w D | y.y.r.' ' D.| y.D.| b 3 $ V | ( 7 ; v +.5.$.$.",
"=.+.=.{ W - & $ $ $ $ $ $ $ $ $ $ $ $ $ $ $ $ $ $ o $ = o $ $   o $ w N D ^ ' ( ' y.{ | d.d.d.{ | ' d.' c $ e ] H . ; l +.+.q.q.",
"=.$.=.{ W - $ $ $ $ $ $ $ $ $ $ $ $ $ $ $ $ $ $ $ $ = $ $ 3 8 - = $ $ = o , q t k K T K P K P W W T P L s o , ^ x $ 1 l <.X.$.$.",
"=.$.w.{ W - $ $ $ $ $ $ $ $ $ $ $ $ $ $ $ $ $ $ $ $ $ $ 7 A T K G i r r - = - X $ $ $ = = - < < , , - $ , $ 3 K , $ * j <.X.q.q.",
"<.+.q.{ W - $ $ $ $ $ $ $ $ $ $ $ $ $ $ $ $ $ $ $ $ $ o , r A y.r.' ' ' T A k i i 8 - $ $ - - - $ < w g D 7 w b $ & ; c { <.<.$.",
"<.+.q.{ W - $ $ $ $ $ $ $ $ $ $ $ $ $ $ $ $ $ $ X $ - $ % - i ^ | y.D.d.{ ] ' ' { ( T P P P K K P K ( { y.P P g $ & ; c [ <.<.$.",
"=.+.=.{ W - $ $ $ $ $ $ $ $ $ $ $ $ $ $ $ $ $ $ = O $ o $ o w ^ D.| ' { | d.D.A.| | { | | | | y.d.' D.d.| { ' < $ & ; z [ <.<.$.",
"=.+.=.{ E - $ $ $ $ $ $ $ $ $ $ $ $ $ $ $ $ $ $ = o $ $ = $ q ^ y.T G T ' ' ` | | y.y.d.d.y.y.y.y.y.| { | d.( 3 $ $ - l [ <.<.=.",
"=.+.=.{ E - $ $ $ $ $ $ $ $ $ $ $ $ $ $ $ $ $ $ $ $ - $ $ - s | y.T G P ( W T ) | | | | | | | { ' y.| { y.{ H - $ $ * l [ <.<.=.",
"=.+.=.{ R - $ $ $ $ $ $ $ $ $ $ $ $ $ $ $ $ $ $ $ $ $ o o = i T { y.| | y.' ' | | | { | | y.y.| | y.d.d.y.| A $ $ $ & l [ <.<.$.",
"=.$.=.{ R - $ $ $ $ $ $ $ $ $ $ $ $ $ $ $ $ $ $ o $ $ = $ o e M G ^ ) ^ ) ..y.d.y.d.r.y.| | { ' | { | { { ' k $ $ $ & l [ <.q.$.",
"=.$.=.{ R - $ $ $ $ $ $ $ $ $ $ $ $ $ $ $ $ $ $ $ = o = o - B ( ( y.( P W { | { ^ ' { | | y.y.| | y.y.{ D.( q $ $ $ & j [ <.q.$.",
"<.{ h.=.U - $ $ $ $ $ $ $ $ $ $ $ $ $ $ $ $ $ $ $ o & & $ , v | =.d.i.| | i.i.| ' | y.| | y.y.|  .| ] A.' ' < o o X , g ` 5.V.X.",
"<.<.[ <.U & & - $ $ $ $ $ $ $ $ $ $ $ $ $ $ $ $ & & $ $ $ $ u ^ i.' ' =.i.{ { d.{ y.d.| { | y.| ] d.| y.{ H - = = o $ d h.X.X.6.",
"{ M.{ ' Q ; ; X $ $ $ $ $ $ $ $ $ $ $ $ $ $ $ $ o $ o X = X 7 H | y.d.' P G T d.y.' W W )  .f.| | D.| ] d.x $ $ X = & s <.X.5.5.",
"{ +.v.` ` 1 - o $ $ $ $ $ $ $ $ O O O O O O O O $ $ $ $ - $ < b ) ] ] ) ) ' { ' { ^ P P ^ | y.| | y.] { ' q X   + - & l ' +.h.X.",
"h.` h.=.[ t $ ; $ $ $ $ $ $ $ $ $ $ $ $ $ $ $ $ $ X $ O X o $ 4 i H f.D.] ] | | { | | | | | i.d.{ y.y.D.P , - - , + & F { $.$.5.",
"<.+.[ 9.' K 9 X & & & & * * - - $ $ $ $ $ $ $ $ ; $ ; - $ - - $ = t V J P T W W R Q ^ Q W R E W / W T Y v - & + + ; d / } q.$.$.",
"{ h.[ { { x.Z e - - - - - ; ; ; 1 1 2 2 2 2 1 1 2 1 5 2 2 6 1 1 2 1 1 5 9 9 5 2 0 9 5 5 5 9 9 6 6 2 5 0 5 2 1 2 e c R } } w.$.} ",
"{ +.=.{ 9.{ | ' / / / / / / ( ( ( ( ( ( ( ( ( ( ( _ ( / ` _ E _ Q ( _ ( / / / ( / ( _ _ / Q Q ~ ~ ( ` Q / ` Q _ ( / Z.` q.} [ q.",
"+.+.+.+.+.+.+.+.+.+.+.+.+.+.+.+.+.+.+.+.+.+.+.+.+.+.+.+.+.+.5.5.+.+.+.+.+.+.+.+.+.+.+.+.+.+.+.+.+.+.+.+.+.+.+.5.<.<.<.<.<.<.<.<.",
"+.+.+.+.+.+.+.+.+.+.+.+.+.+.+.+.+.+.+.+.+.+.+.+.+.+.+.+.+.+.5.5.+.+.+.+.+.+.+.+.+.+.5.5.+.+.+.+.+.+.+.+.+.+.5.5.<.<.<.<.<.<.<.<.",
"+.+.+.+.+.+.+.+.+.+.+.+.+.+.+.+.+.+.+.+.+.+.+.+.+.+.+.+.+.+.+.+.+.+.+.+.+.+.5.5.+.+.5.5.+.+.5.5.+.+.+.+.+.+.+.+.<.<.<.<.<.<.<.<.",
"+.+.+.+.+.+.+.+.+.+.+.+.+.+.+.+.+.+.+.+.+.+.+.+.+.+.+.+.+.+.+.+.$.+.+.+.5.5.5.5.+.+.+.5.+.5.5.5.+.+.+.+.+.+.+.+.+.+.+.+.+.+.+.+.",
"+.+.+.+.+.+.+.+.+.+.+.+.+.+.+.+.+.+.+.+.+.+.+.+.+.+.+.+.+.+.+.+.+.+.5.5.+.+.+.+.+.+.5.5.+.+.+.+.+.+.+.+.+.+.+.+.+.+.+.+.+.+.+.+.",
"+.+.+.+.+.+.+.+.+.+.+.+.+.+.+.+.+.+.+.+.+.+.+.+.+.+.+.+.+.+.+.+.+.+.5.5.+.+.+.+.+.+.5.5.+.+.+.+.+.+.+.+.+.+.+.5.+.+.+.+.+.+.+.+.",
"+.+.+.+.+.+.+.+.+.+.+.+.+.+.+.+.+.+.+.+.+.+.+.+.+.+.+.+.+.5.5.5.+.+.+.+.+.+.+.+.+.+.+.5.+.+.+.+.+.+.+.+.+.5.5.5.+.+.+.+.+.+.+.+.",
"+.+.+.+.+.+.+.+.+.+.+.+.+.+.+.+.+.+.+.+.+.+.+.+.+.+.+.+.+.5.5.5.+.+.+.+.+.+.+.+.+.+.+.+.+.+.+.+.+.+.+.+.+.5.5.5.+.+.+.+.+.+.+.+."
};
