/* XPM */
static char *_98a18ede86b4878ec57ef86d3f64f36ijKd4gcTINEfCG5C[] = {
/* columns rows colors chars-per-pixel */
"64 64 256 2 ",
"   c #030205",
".  c #0B0205",
"X  c #02030B",
"o  c #0B040D",
"O  c #04090D",
"+  c #0C0A0D",
"@  c #080A05",
"#  c #12050C",
"$  c #140B0D",
"%  c #1B0A0C",
"&  c #180505",
"*  c #17120D",
"=  c #030513",
"-  c #0B0613",
";  c #050915",
":  c #0B0B14",
">  c #03051A",
",  c #0B061A",
"<  c #050B1C",
"1  c #0C0D1B",
"2  c #130B13",
"3  c #1B0D13",
"4  c #130C1B",
"5  c #1B0D1B",
"6  c #160613",
"7  c #0D121D",
"8  c #0D1315",
"9  c #131214",
"0  c #1B1314",
"q  c #13131C",
"w  c #1B131B",
"e  c #131B1C",
"r  c #1B1A1C",
"t  c #1F1C15",
"y  c #0E100F",
"u  c #230301",
"i  c #230C0C",
"p  c #290C09",
"a  c #27140C",
"s  c #36150B",
"d  c #210D12",
"f  c #230C1D",
"g  c #241314",
"h  c #2C1414",
"j  c #23131B",
"k  c #251A1B",
"l  c #2C1B1C",
"z  c #281719",
"x  c #321413",
"c  c #331C1B",
"v  c #3A1A17",
"b  c #3B231B",
"n  c #302616",
"m  c #060D22",
"M  c #090E23",
"N  c #0B0E2A",
"B  c #030927",
"V  c #160E23",
"C  c #051224",
"Z  c #0A1224",
"A  c #06132B",
"S  c #0B142B",
"D  c #0B192E",
"F  c #0C1824",
"G  c #141322",
"H  c #1B1623",
"J  c #141B22",
"K  c #1B1B23",
"L  c #12152C",
"P  c #131A2C",
"I  c #1B1C2B",
"U  c #1B1728",
"Y  c #061434",
"T  c #0C1632",
"R  c #0C1A34",
"E  c #0D1B3B",
"W  c #08163A",
"Q  c #121634",
"!  c #131B34",
"~  c #121B3C",
"^  c #161A38",
"/  c #070B33",
"(  c #241B23",
")  c #2B1C22",
"_  c #261824",
"`  c #361E22",
"'  c #2B1631",
"]  c #1B232A",
"[  c #1A2425",
"{  c #13223C",
"}  c #1C233B",
"|  c #192537",
" . c #0B213C",
".. c #222224",
"X. c #292629",
"o. c #342223",
"O. c #392627",
"+. c #262836",
"@. c #392B36",
"#. c #383336",
"$. c #283438",
"%. c #14201E",
"&. c #431B17",
"*. c #461309",
"=. c #46241B",
"-. c #592619",
";. c #502D11",
":. c #472927",
">. c #562B24",
",. c #58372A",
"<. c #462D35",
"1. c #493537",
"2. c #583937",
"3. c #473427",
"4. c #623526",
"5. c #6E3F3A",
"6. c #5A291E",
"7. c #56423B",
"8. c #684539",
"9. c #6F4B2E",
"0. c #746337",
"q. c #0C1C44",
"w. c #131E42",
"e. c #1A1E43",
"r. c #181D4C",
"t. c #0F2247",
"y. c #142244",
"u. c #1A2344",
"i. c #14234B",
"p. c #1A234C",
"a. c #162A4D",
"s. c #1B2B46",
"d. c #152552",
"f. c #1B2553",
"g. c #192B54",
"h. c #1B2B5B",
"j. c #172957",
"k. c #1B325B",
"l. c #1A3156",
"z. c #152D50",
"x. c #242A48",
"c. c #283347",
"v. c #383849",
"b. c #232A58",
"n. c #273557",
"m. c #363C51",
"M. c #1D2D63",
"N. c #1E2A66",
"B. c #1C3364",
"V. c #1D336B",
"C. c #1D3D6B",
"Z. c #1A3765",
"A. c #1E3A74",
"S. c #1C3876",
"D. c #222D63",
"F. c #252E6B",
"G. c #243364",
"H. c #22346C",
"J. c #273A69",
"K. c #353869",
"L. c #233673",
"P. c #233C7C",
"I. c #273976",
"U. c #363C76",
"Y. c #4E3B48",
"T. c #453B72",
"R. c #643B41",
"E. c #354558",
"W. c #2C445A",
"Q. c #1B4472",
"!. c #27446A",
"~. c #374C64",
"^. c #26467A",
"/. c #38447B",
"(. c #335779",
"). c #1F454E",
"_. c #584C4D",
"`. c #6A585A",
"'. c #785755",
"]. c #6E4E4A",
"[. c #776550",
"{. c #4D5973",
"}. c #576675",
"|. c #736F6F",
" X c #615D6B",
".X c #87513B",
"XX c #885D55",
"oX c #885747",
"OX c #936959",
"+X c #8D6D51",
"@X c #A77053",
"#X c #906A67",
"$X c #A97665",
"%X c #B4896A",
"&X c #A18D64",
"*X c #C89972",
"=X c #D0A27A",
"-X c #283E83",
";X c #353C80",
":X c #1C3680",
">X c #1F4F80",
",X c #2B4284",
"<X c #2B448B",
"1X c #264587",
"2X c #354A88",
"3X c #275788",
"4X c #385687",
"5X c #2A4894",
"6X c #334C94",
"7X c #2C5A95",
"8X c #375699",
"9X c #2C649B",
"0X c #356598",
"qX c #3B628A",
"wX c #395AA5",
"eX c #2D53A7",
"rX c #2C66A3",
"tX c #3965A8",
"yX c #3A77AA",
"uX c #3B67B7",
"iX c #3272B5",
"pX c #43578E",
"aX c #406B98",
"sX c #5C6D91",
"dX c #6D7A92",
"fX c #4576A6",
"gX c #446CB4",
"hX c #4973B4",
"jX c #3F7CC3",
"kX c #4B7CC7",
"lX c #3A83B7",
"zX c #4A86B8",
"xX c #518DBB",
"cX c #738AB1",
"vX c #4A86C5",
"bX c #548CC8",
"nX c #5999C4",
"mX c #5897D4",
"MX c #4F8ECC",
"NX c #689CC7",
"BX c #59A6D5",
"VX c #66A4D6",
"CX c #77B5DE",
"ZX c #6CABD1",
"AX c #5DA6E1",
"SX c #6BB8E5",
"DX c #7AC5EC",
"FX c #B09384",
"GX c #8A9ABE",
"HX c #D4AB8C",
"JX c #F9D19A",
"KX c #8ABDE1",
"LX c #88ADD1",
"PX c #98CCE7",
"IX c #92CFF0",
"UX c #C4D6FC",
/* pixels */
"; = O = = = ; ; < < < < ; > > < > > ; < < < < < < < < m m M C C m Z S T R R L P u.s.u.R A A S A S S A A Z Z C m Z Z Z Z < < < < ",
"= = = = = = ; ; < < < < ; > < < > < < < < < < < < < m m m C C C A S T R R R R R T R ~ R R | | | ! ! R D D F Z Z Z Z Z Z < < < < ",
"= = ; ; ; ; ; ; < < < < < < < < < < m m m m m m < m m C C C A A C A T E y.y.u.a.{ { R D A F C C R R R D A S Z Z Z Z Z Z m < < < ",
"= = ; ; ; ; ; ; < < < > > < m < < < m Z m m m m m C C C C A A A C A R y.a.g.h.l.a.y.E T R D D D T T R S A A A Z Z Z Z Z Z C < < ",
"= ; ; ; ; ; ; ; > < < > > m m < m m m m m m m m Z C C C Z A S S D R y.a.h.k.l.l.p.y.E E E E R T T T T R R T D D S F F Z Z Z Z C ",
"; ; ; ; ; ; ; ; > m Z m < m m < m m m Z m m m m Z C C A A S S S D R y.g.n.Z.k.k.p.y.y.y.~ E W Y R T T T R R R T S A A A A F A C ",
"; ; ; ; ; ; ; ; m L P S m m M m M M M Z M M M m Z A A A S S D D T T E a.k.G.G.k.s.} } s.u.u.u.x.E E R R R R R T D D S S A A A A ",
"; ; ; ; ; ; < < m P ^ L M M Z M Z Z Z Z Z Z M M Z A A A S D D T ! ~ E y.g.l.l.l.c.+.| P Z m S ! y.y.{ { ~ ! ! ! D D D D S A A A ",
"; < < < < < < < T T B R ~ B M S M Z Z Z Z S S S S R T A Y R E R ~ p.q.y.| +.v.v.#...q G H 1 1 1 m P } { E q.y.R E R R T T D D D ",
"; < m m < < m m B y.x.u.R T S m Z Z Z S S S T T A T T T R E {  .E W E x.$.|.Y.@.O.) w 4 ; = > 7 < I E.R y.q.b.R y.~ E R R R R D ",
"; < m m m m M Z W {.GXsXs.~ L L S D D T T R R R T R R R E  . .E i.Y }  X1.].c Y.g ) X.+.I m m D < I E.s.a.q.l.y.u.i.y.{ { ! R R ",
"< < m m m M Z S q.sXUXGXn.~ D P D S T T R R R R R E E E E y.y.q.i.u.v.`.7.'.8.8.o.) w : = = B T < F } W.g.d.t.g.a.a.i.u.y.{ E R ",
"< M m m M M S D q.~.cXsXa.~ S M T T T T T R R R W W E E E y.i.i.d.S `.+XOX5.v b 1.1.@.+.+.} T B M Z D n.a.l.d.l.g.z.a.a.a.y.{ E ",
"M m m M M Z S L w.w.J.b.W E ! } T T R R R E E W w.y.w.q.q.t.i.t.q.c.FX9.OX#X'.].O.c % . - L ^ ~ S L | { a.k.J.l.l.g.g.d.a.a.i.y.",
"m M M M M Z S Q u.~ w.y.E W { c.E E ~ E E E w.w.p.a.i.q.q.i.i.i.d.v.[.+XFX'.O.* . & # . X 7 L ! Q +.E.n.l.Z.J.Z.k.l.h.g.g.g.a.i.",
"M M M m M M S T Q Q N ~ u.W R { ~ ~ ~ ~ y.y.y.y.w.i.y.q.i.g.k.k.j.}.3.+XOXu 3   i l o.$   X Z ^ Q m.E.}.n.!.B.C.B.k.k.k.l.g.d.a.",
"M M S S S Z S S Q Q ! ~ R E E ~ E ~ ~ w.w.w.y.y.i.d.d.i.d.h.B.B. X].f _.&X& B . c [.s & . M > {  .c.c.{.C.S.C.C.Z.C.Z.Z.Z.J.J.Z.",
"M M S S Z S S D T Q Q ~ ~ ~ ~ w.E w.y.y.w.w.y.y.i.a.d.d.j.k.B.B._.h &.>.8.+ = X p '.,.:.X.+.Z } z.E.m.{.!.1X^.Q.C.Z.B.Z.!.^.!.Z.",
"M M N N Z S D Q T R Q ~ ~ ~ w.w.w.i.i.i.i.i.i.i.d.d.j.j.h.B.Z.Z.p a 9.XXX.< > A =.XX'.'.Y.+.D ! y.c.G | y.!.^.Q.^.C.Z.C.^.^.J.Z.",
"N N N N Z S Q ! T Q ~ ~ ~ ~ w.w.i.i.f.j.j.j.h.h.j.j.j.h.B.V.V.V.' [.+X'.m > S { ].#XXX].@.M S L E { X O C z.4X1X^.^.Q.Q.C.C.C.Z.",
"N S N N S T Q ! Q Q ~ ~ ~ ~ w.w.r.d.j.h.M.M.V.H.B.B.B.V.V.A.S.A.K.+X&XQ , N W #.#XXX].1.( = S ^ E ! > ; ;  .aX0X0X0X3X>X^.3X^.Z.",
"S L S S T T Q ! Q ~ ~ ~ ~ w.w.w.r.d.j.h.B.V.L.I.L.V.V.A.S.S.^.1XK.&X_.q.o P W <.#X].2.o.4 > Z L A D m ; X D NXCXZXNXzXyXfXfX4XC.",
"N L L Q T T Q ! Q Q ~ ~ w.w.w.e.d.f.h.M.B.V.V.A.A.S.P.P.S.S.1X8X}.dXe.b.O B / #.`.Y.:.) : m m Z P A S m X s.PXIXDXZXxXzXzXfX3XQ.",
"N L Q Q T T Q Q R Q ~ ~ w.w.e.p.f.g.h.M.M.B.V.V.S.S.P.^.1X1X6X8X|.N r.x.).Y / ! Y.<.) w > C m F P C Y B > c.PXnXxXlXyXlXyX3XQ.Q.",
"S S L P | } ^ Q ^ Q ~ y.u.y.i.p.f.g.h.M.V.V.S.S.S.:X1X8XtX5XpX|.].u .   G > T Y +.+.I 1 = > m N N E Z   C 3XMXxXhXrX9X9X9X3X3X^.",
"Q T T Q ~ ~ ~ W w.w.e.p.p.p.f.b.g.h.D.M.V.V.L.P.S.<X<X1X5X5X4X}.u %   J 1 = 4 U @.X.H : ; > M S S Y < 2 } 7XiX9XrX9XtXyXfXfX0XqX",
"~ w.r.r.f.f.r.w.i.d.j.j.j.d.f.b.h.M.D.H.L.L.P.-X5X5X5X7XeXeX8XdX=.& ( X X o % :.1.O.w : ; > m L Z B > w ~.fXlXyXtX9X9X7X7X0XaX0X",
"~ i.h.F.L.F.h.i.M.M.H.H.N.j.f.b.M.H.H.L.P.P.,X1X7X5X5XwXtXeXtXcXOXu `.( I Y.`.'.Y.O.3 2 ; > > S P A = o W.yXiX9XrX9X9X9X7X7X3X^.",
"w.i.M.L.I.L.M.h.V.L.P.,XI.H.D.F.L.L.I.P.-X1X<X5X3XeXwX7XrXuXuXfXJXHX#X) +.Z ( _.2.` $ + ; = > Z L T < X l.yXlXyXiXrXrXtX9X3X3X>X",
"y.i.j.N.F.F.H.H.N.L.-X<X,XP.L.I.P.-X-X,X<X5X6X8X7XuXuXyXyXjXjXzXJX%X$X_.#.A P 4 <.z o - ; > > F Z E | 7 W.nXAXnXvXiX9X9X3X^.3X4X",
"e.e.i.i.j.h.H.L.N.V.P.,X<X-XP.P.-X,X<X5X6X8XwXwXtXuXuXzXnXvXvXNX%X@XoX>...F > = O.w o - ; ; < Z ^ y.c.] ~.VXSXnXMXzXfX0X(.!.~.W.",
"~ ~ ~ w.i.f.M.N.H.H.I.<X<X1X-X,X<X<X5X6X8XwXgXgXyXkXbXbXnXBXVXNX0.HX.XXXo.8 ; < o.w - ; > ; < 7 ^ W x.+.(.DXDXZXxXfXqX!.s.} $.$.",
"w.w.w.w.e.i.f.h.H.I.^.2X<X1X<X<X5X6XwXwXwXgXhXhXvXMXmXVXCXKXKXKXHX%X].:.% 4 < > v.w X ; ; > < Z I +.} | E.E.~.c.+.I G 1 1 q q q ",
"e.e.e.e.y.p.f.h.M.G.H.I.P.,X<X6XwXwXtXtXtXgXhXbXnXVXKXIXIXPXPXPX9.;.s b O.. = Z ( - X : ; > < m G P x.m.E.D C C Z m < 1 7 q q : ",
"e.e.u.u.u.p.f.h.h.h.M.M.V.I.,X2X8XwXtXgXhXvXmXVXLXKXPXIXPXPXPXPX9.0.4.XX:.3   : 2 o - 1 ; > < m L Z } c.E.= = < < < : 1 7 1 : = ",
"e.e.u.u.u.p.f.b.b.b.D.D.M.V.L.P.2X8XgXhXhXhXkXvXNXCXIXIXIXIXIXCX@X=XoX&Xb o.$ 2 w 2 : : = > < m L Z ! } m.m G G Z 1 1 1 1 1 1 : ",
"w.w.e.w.w.e.p.f.b.D.G.G.H.H.L.L.L.,X6XwXtXtXuXuXMXmXmXAXAXAXmXMX=X*X.XOX2.c k 0 _ w 4 : = ; < < m Z ! | m.P G - 1 1 1 7 q q G G ",
"w.w.~ w.w.e.p.f.f.b.G.J.I.I.I.I.I.P.-X-X5X6XwXtXrXiXiXjXMXmXmXbXHX=XoXOX2.c 0 0 ( 2 : : ; ; < ; Z F ! c.v.Z 1 1 1 7 q q q q q 1 ",
"w.e.e.e.e.p.f.b.h.b.G.J.I.I.I.^.8X6X6X<X1X<X5X6XgXhXhXhXfXpX!.l.*X*X+XXXv o.w w w 2 : : ; ; ; > S L Z c.c.P 7 ] 7 q q q 7 : - = ",
"e.e.e.u.u.p.b.b.D.F.G.H.H.I.I.^.,X2X6X8X8X8X8X8XpX2XJ.i.W S G q *X%XOX2.:.j ( 2 k 2 o : = X ; 1 m P m c.c.| 7 7 e 7 : ; ; - : 1 ",
"e.r.p.f.f.f.b.n.B.J.^.,X<X5XeXwX8X8X4X4X/.J.n.n.y.M L Z M M 2 Y.%X@X@X*.v l 3 * 5 4 4 - - ; ; < Z Z D | } | [ 8 7 1 : : : - - - ",
"u.x.b.b.D.D.D.D.H.I./.2XpXpXpX4XpXJ.q./ Y ^ Q S Z < 1 = Z ; o ].$XoXoXu o.X.2 g 2 + o   X X O = ; < m D | | [ e q q : : - - - - ",
"n.n.n.G.I.U.U.;XU.U.U.K.K.n.x.{ Q N < < G G 4 , 1 q 9 O J 7 2 `.oX4.2.& e 1   6 @       X X O O > m ! c.m.c.] 8 : : : : : : 8 8 ",
"G.K.K.U.U.U././.b.r.^ Q Q L G : , 4 H q 2 : 4 G : 4 9 O F < : 1.&.u u & . X + #       X X O ; ; < Z L } x.+.] J e e e e e e e e ",
"F.K.U.K.K.b.x.x.G V , , 4 5 V V U G 1 : : 1 1 < V 1 q 1 < Z : 0 s 8.*.*.u & $       X X = > > > < < Z T { | ] ] ] ] X...[ [ J J ",
"T.T.K.x.^ U G G w w w 5 5 5 5 V , ; ; 1 H I G < V 1 q G < F K $ n HX@X.X-.x . @ o o - - ; > < > ; < Z ! { ! J 7 F e [ [ [ [ e F ",
"T.Y.+.U 4 4 5 5 6 2 5 5 5 V V G G G q 1 : : 4 G > - : q 7 7 ..O.;.HX%X.X4.:.h b j j 3 2 : ; < < Z Z m M Z L P P F F e e %.e F F ",
"@.' f 5 j j f 5 f V 5 5 4 4 4 4 4 4 4 2 2 2 4 4 7 K e ..$.X.7.|.oX.X9.;.b 3.:.x c z g 3 : ; ; ; ; Z ! s.c.c.c.$.$.$.+.X.[ [ P P ",
"_ 3 j ) _ j 5 5 4 5 _ j 9 9 1 L V V 4 = q : J $.] $.+.X...b 8.oX.X4.,.O.x v c z 0 9 9 : o   X = = = 1 G 7 G I G ] X.] [ [ [ [ e ",
"_ ) ) j j _ j 5 ( 6 6 3 g k w 4 4 ( ( j k X.X.X.#.#.O.1.3.,.XXoX4.=.b c x v h * % #     . . o : q = = 1 ; : q q q K ] X.X.] ] J ",
"O.@.) d d d d j _ j j ` a i o.@.@.) l c 2.2.1.z =.:.c h b &.*.-.=.s h i d h g a d # . + $ % 0 r K O   - - = : 1 1 q q q q J J J ",
"k j # d h % h O.g % g 1.,.>.:.z <.g p :.:.:.b x v x O.` i p &.v ` h z w 3 g i g j 3 3 g z l z t 0 2 2 w q 4 4 4 G G 1 : ; : 7 G ",
"g d & i i & a x g & i :.4.,.=.h i x x 7.u v x 2.x 1.@.( X.( w <.3 3 _ ( H 0 % c j 3 9 0 z g 0 * $ w r w w H H G H H H G q 1 7 G ",
"g ` h p u p v & u & h b -.>.v l & c 1.=.p p O.<.O.l ( 4 ; G 7 : + # 4 1 : : g <.j 2 + : 2 $ # @ . w w - - 1 1 1 G q 1 1 1 1 G H ",
"% h x v v :.8.s p & a s 8.oXp . & d :.& o.% l # x c 3 X q J X 9 + o - X = O 3 2.4 : = = - - o O - 4 : X o o X ; : = X X X X : G ",
"h x x >.&.:.8.s :.h z & -.5.p ..6 ) z o.o.o.2 3 >.:.` # 2 w   . @ O : 7 F ; # :.- X = ; 1 - = X , 4 - = 1 = X = X X O ; ; O X O ",
"% g c v v v &.&.-.4.4.-.=.v k 4 _ 6 j <.@.j 3 ) R.<.6 : = X ) <.' H 2 - - - 1 G - - : 1 1 : , ,   X = = ; = = X = = = X X = = = ",
"c b O.=.v v =.:.-.4.4.-.s p & . j 3 3 k j . . # =.o.# o o # O.:.2 O       X X - X X O = = = = =   O - : 1 7 : X 1 : ; ; O O O O ",
"h h x x p a h h v =.>.=.s h i % . # # $ $ $ 2 0 p c # . + 3 o.x 9 + O O O X X O X X X X X X X X @ + : q H I q ; O O X X X X X X ",
"i h h h h d 3 3 i h v v v v ` ` g z g g 0 0 g k x o.z g z l O.h 0 9 9 y y + o o + + 9 9 9 9 : : * 9 w K K I H q ..........[ K K ",
"g h z z j j w w $ % % i h c c c l l l l z z k o.z l g k l c b x o.o.) ) ......) 0 j k ) ) k j 0 9 0 w w q H H K r r r r w 9 9 : ",
"3 3 3 # # 6 2 4 2 # # # % 3 d 3 % & 3 j j d j ) j 3 3 w j g g g d 3 3 $ 2 3 3 3 3 5 j j j j 3 3 $ 2 2 : : 4 q K r r r K r r 9 9 ",
"2 2 # # # 6 6 2 2 6 o o 6 2 $ $ 2 2 2 2 # .   . H w w j w 0 2 0 3 2 2 o o : : - - - 2 2 2 2 + o - - - - - : 9 q 9 9 w r r w 9 9 ",
"o o - o o o o o o o : : - o o o o - : - X X = O - - 2 6 # 2 o - - - - = ; 1 1 : : : : : ; - - - - , , - : : : @ o + 2 2 2 o .   "
};

