/* XPM */
static char *_cb78871f70542a2c44a41c4582c5d70GnpBuEJbj2q7OFRs[] = {
/* columns rows colors chars-per-pixel */
"64 64 5 1 ",
"  c #464646",
". c #2F3699",
"X c #4D6DF3",
"o c #709AD1",
"O c #99D9EA",
/* pixels */
"XXXXXXXXXXXXXXXXXX..ooXXXXXXXXXXXXXXXXXX..ooXXXXXXXXXXXXXXXXXX..",
"XXXXXXXXXXXXXXXXXX..ooXXXXXXXXXXXXXXXXXX..ooXXXXXXXXXXXXXXXXXX..",
"XX................  OOXX................  OOXX................  ",
"XX................  OOXX................  OOXX................  ",
"XX................  OOXX................  OOXX................  ",
"XX................  OOXX................  OOXX................  ",
"XX................  OOXX................  OOXX................  ",
"..                  oo..                  oo..                  ",
"..                  oo..                  oo..                  ",
"ooOOOOOooooooOOOOOooooooOOOOOooooooOOOOOooooooOOOOOooooooOOOOOoo",
"ooOOOOOooooooOOOOOooooooOOOOOooooooOOOOOooooooOOOOOooooooOOOOOoo",
"XXXXXXX..ooXXXXXXXXXXXXXXXXXX..ooXXXXXXXXXXXXXXXXXX..ooXXXXXXXXX",
"XXXXXXX..ooXXXXXXXXXXXXXXXXXX..ooXXXXXXXXXXXXXXXXXX..ooXXXXXXXXX",
".......  OOXX................  OOXX................  OOXX.......",
".......  OOXX................  OOXX................  OOXX.......",
".......  OOXX................  OOXX................  OOXX.......",
".......  OOXX................  OOXX................  OOXX.......",
".......  OOXX................  OOXX................  OOXX.......",
"         oo..                  oo..                  oo..       ",
"         oo..                  oo..                  oo..       ",
"ooOOOOOooooooOOOOOooooooOOOOOooooooOOOOOooooooOOOOOooooooOOOOOoo",
"ooOOOOOooooooOOOOOooooooOOOOOooooooOOOOOooooooOOOOOooooooOOOOOoo",
"XXXXXXXXXXXXXXXXXX..ooXXXXXXXXXXXXXXXXXX..ooXXXXXXXXXXXXXXXXXX..",
"XXXXXXXXXXXXXXXXXX..ooXXXXXXXXXXXXXXXXXX..ooXXXXXXXXXXXXXXXXXX..",
"XX................  OOXX................  OOXX................  ",
"XX................  OOXX................  OOXX................  ",
"XX................  OOXX................  OOXX................  ",
"XX................  OOXX................  OOXX................  ",
"XX................  OOXX................  OOXX................  ",
"..                  oo..                  oo..                  ",
"..                  oo..                  oo..                  ",
"ooOOOOOooooooOOOOOooooooOOOOOooooooOOOOOooooooOOOOOooooooOOOOOoo",
"ooOOOOOooooooOOOOOooooooOOOOOooooooOOOOOooooooOOOOOooooooOOOOOoo",
"XXXXXXX..ooXXXXXXXXXXXXXXXXXX..ooXXXXXXXXXXXXXXXXXX..ooXXXXXXXXX",
"XXXXXXX..ooXXXXXXXXXXXXXXXXXX..ooXXXXXXXXXXXXXXXXXX..ooXXXXXXXXX",
".......  OOXX................  OOXX................  OOXX.......",
".......  OOXX................  OOXX................  OOXX.......",
".......  OOXX................  OOXX................  OOXX.......",
".......  OOXX................  OOXX................  OOXX.......",
".......  OOXX................  OOXX................  OOXX.......",
"         oo..                  oo..                  oo..       ",
"         oo..                  oo..                  oo..       ",
"ooOOOOOooooooOOOOOooooooOOOOOooooooOOOOOooooooOOOOOooooooOOOOOoo",
"ooOOOOOooooooOOOOOooooooOOOOOooooooOOOOOooooooOOOOOooooooOOOOOoo",
"XXXXXXXXXXXXXXXXXX..ooXXXXXXXXXXXXXXXXXX..ooXXXXXXXXXXXXXXXXXX..",
"XXXXXXXXXXXXXXXXXX..ooXXXXXXXXXXXXXXXXXX..ooXXXXXXXXXXXXXXXXXX..",
"XX................  OOXX................  OOXX................  ",
"XX................  OOXX................  OOXX................  ",
"XX................  OOXX................  OOXX................  ",
"XX................  OOXX................  OOXX................  ",
"XX................  OOXX................  OOXX................  ",
"..                  oo..                  oo..                  ",
"..                  oo..                  oo..                  ",
"ooOOOOOooooooOOOOOooooooOOOOOooooooOOOOOooooooOOOOOooooooOOOOOoo",
"ooOOOOOooooooOOOOOooooooOOOOOooooooOOOOOooooooOOOOOooooooOOOOOoo",
"XXXXXXX..ooXXXXXXXXXXXXXXXXXX..ooXXXXXXXXXXXXXXXXXX..ooXXXXXXXXX",
"XXXXXXX..ooXXXXXXXXXXXXXXXXXX..ooXXXXXXXXXXXXXXXXXX..ooXXXXXXXXX",
".......  OOXX................  OOXX................  OOXX.......",
".......  OOXX................  OOXX................  OOXX.......",
".......  OOXX................  OOXX................  OOXX.......",
".......  OOXX................  OOXX................  OOXX.......",
".......  OOXX................  OOXX................  OOXX.......",
"         oo..                  oo..                  oo..       ",
"         oo..                  oo..                  oo..       "
};
